<svg id="Layer_1" data-name="Layer 1" xmlns="http://www.w3.org/2000/svg" xmlns:xlink="http://www.w3.org/1999/xlink" viewBox="0 0 276.85 450"><defs><style>.cls-1{fill:none;}.cls-2{clip-path:url(#clip-path);}.cls-3{fill:#e06451;}.cls-4{opacity:0.2;fill:url(#radial-gradient);}.cls-5{opacity:0.1;fill:url(#radial-gradient-2);}.cls-6{fill:#f2af8a;}.cls-7{fill:#104352;}.cls-8{fill:#f7f0e8;}.cls-9{fill:#fff;}.cls-10{fill:#e09151;}.cls-11{fill:#b2cdd6;}.cls-12{fill:#f7ecca;}</style><clipPath id="clip-path"><rect class="cls-1" x="-280" width="635" height="450" transform="translate(75 450) rotate(180)"/></clipPath><radialGradient id="radial-gradient" cx="-30.4" cy="71.45" r="469.65" gradientTransform="matrix(-1, 0, 0, 1, 259, 0)" gradientUnits="userSpaceOnUse"><stop offset="0" stop-color="#f7ecca"/><stop offset="1" stop-color="#e06451"/></radialGradient><radialGradient id="radial-gradient-2" cx="359.88" cy="132.29" r="366.34" xlink:href="#radial-gradient"/></defs><title>Artboard 2</title><g class="cls-2"><rect class="cls-3" x="-280" y="-20.06" width="647.28" height="480.25" transform="translate(87.28 440.13) rotate(180)"/><path class="cls-4" d="M185.76-453.87,289.4,71.45,116.5-435.31ZM-8.77-373.29,289.4,71.45,53.33-409.14ZM-113.72-281,289.4,71.45-63-331.67Zm-77.47,116.34L289.4,71.45-155.34-226.72ZM-235.92-32.19,289.4,71.45l-506.76-172.9Zm-8.92,139.49L289.4,71.45-244.84,35.6Zm27.48,137.05L289.4,71.45-235.92,175.1Zm62,125.27L289.4,71.45-191.19,307.53Zm92.32,105L289.4,71.45-113.72,423.87ZM53.33,552.05,289.4,71.45-8.77,516.2Zm132.43,44.72L289.4,71.45,116.5,578.21Zm139.49,8.93L289.4,71.45,253.55,605.7ZM462.3,578.21,289.4,71.45,393,596.77Zm125.27-62L289.4,71.45l236.07,480.6Zm104.95-92.33L289.4,71.45,641.82,474.57ZM770,307.53,289.4,71.45,734.14,369.62ZM814.72,175.1,289.4,71.45l506.76,172.9Zm8.92-139.5L289.4,71.45,823.64,107.3Zm-27.48-137L289.4,71.45,814.72-32.19Zm-62-125.27L289.4,71.45,770-164.62Zm-92.32-105L289.4,71.45,692.52-281ZM525.47-409.14,289.4,71.45,587.57-373.29ZM393-453.87,289.4,71.45,462.3-435.31Zm-139.49-8.92L289.4,71.45l35.85-534.24Z"/><path class="cls-5" d="M-195.1,639.05-368,132.29l103.64,525.32Zm125.27-62L-368,132.29l236.07,480.59Zm105-92.33L-368,132.29-15.58,535.41Zm77.47-116.34L-368,132.29,76.74,430.46Zm44.73-132.43L-368,132.29l506.76,172.9Zm8.92-139.49L-368,132.29l534.24,35.85Zm-27.48-137L-368,132.29,157.32,28.65Zm-62-125.27L-368,132.29,112.59-103.79ZM-15.58-270.83-368,132.29,35.12-220.13Zm-116.35-77.48L-368,132.29-69.83-312.46ZM-264.36-393-368,132.29l172.9-506.76Z"/><circle class="cls-6" cx="296.48" cy="60.21" r="82.86" transform="translate(149.56 324.67) rotate(-72.43)"/><path class="cls-3" d="M367.32,15.38A83.51,83.51,0,0,0,349.07-5.1a9.65,9.65,0,0,0-2.64-2s0,0-.05,0a10,10,0,0,1-3.09-2.18L343-9.71a2.76,2.76,0,0,0-1.43-.76c-.41-.27-.82-.52-1.24-.78A84,84,0,0,0,324-19a81.74,81.74,0,0,0-9-2.56,1.28,1.28,0,0,0-.88-.41,3,3,0,0,1-.94,0L312.9-22l-.4-.07a83.84,83.84,0,0,0-98.7,96.26,2.07,2.07,0,0,1,.28,1.07c0,.22,0,.44,0,.65a83.87,83.87,0,0,0,72,67.49,7.87,7.87,0,0,0-1.56-.68,6.25,6.25,0,0,1-3.42-1.58c-.34-.4-.87-.29-1.33-.38-2.19-.48-4.48-.56-6.51-1.7a5.56,5.56,0,0,0-1.52-.39c-1.9-.5-3.85-.71-5.56-1.92a11.7,11.7,0,0,0-3.62-1.27,30.64,30.64,0,0,1-7.39-2.82c-2-1.19-4-2.43-6-3.71a4.11,4.11,0,0,1-.91-1.24,12.06,12.06,0,0,0-3.24-3.17c-3.13-2.24-6-4.82-8.93-7.27a3,3,0,0,1-.29-.44l-6-8.44c-.53-.79-.86-1.88-1.58-2.36-.91-.61-.74-1.61-1.31-2.28a13.28,13.28,0,0,1-1.55-2.42c-.46-.8-1.3-1.44-1.12-2.57a1.08,1.08,0,0,0-.54-.82c-1.21-.68-1.4-2-2.06-3-1.24-1.94-1.12-4.25-2.29-6.21-.85-1.42-.86-3.38-1.09-5.11-.19-1.4-.66-2.74-.32-4.27.2-.83-.58-1.87-.86-2.83-.6-2-1.35-4-1.24-6.13a7.25,7.25,0,0,0-.92-3.09,4.55,4.55,0,0,1-.42-2.46c.4-4,.4-8,1.14-12a25.6,25.6,0,0,0,.24-3,10,10,0,0,0,3.9-3.39,2.2,2.2,0,0,1,2.14-1.1c1.92.05,3.86,0,6.1-.1.79-.75,1.2-2.14,2.77-1.62S233.72,45,234,46.4a26.12,26.12,0,0,0,1.66,6,8.44,8.44,0,0,1,.38,3.74,54.24,54.24,0,0,0,.17,5.55,6,6,0,0,0,.37,1.71,14.66,14.66,0,0,1,1,5.9c0,.23.19.46.34.82.81.27,1.78,1,2.56.11s2.23-1.42,1.88-3.06a2.84,2.84,0,0,1,.37-1.42c.51-1.27,1.05-2.52,1.73-4.11l2-1.28c.09-1,.19-2.11.26-3.21.11-1.8,1.3-3.08,2.07-4.57s1.77-2.7,1.48-4.46a1.75,1.75,0,0,1,.3-1.26c.9-1.1.72-2.39.8-3.65.12-2.32.18-2.36,2.64-2.57,1.65-2.2,1.42-5.06,2.39-7.67l2.8-1.78a42.57,42.57,0,0,0,4.41-.06c1.79-.2,3-1.69,2.07-3.49s-.6-2.64.91-3.65c1.35-.93,2.77-1.77,4.42-2.81a12.68,12.68,0,0,1,.49,1.78A13.57,13.57,0,0,0,274,30.1a3.56,3.56,0,0,1,.39,3.76,15.8,15.8,0,0,0-.42,4,5.06,5.06,0,0,0,0,.77c.13,1.92-.27,2.76-2.06,2.92s-2,1-2.14,2.42a15.55,15.55,0,0,0,6.95,6.65c2.47,1.31,5.17,2.71,6.36,5.63.69,1.65,2.18,2.55,3.51,3.59a35,35,0,0,1,5.51,4.74c.33.37,1,.47,1.65.8a8.23,8.23,0,0,0,.05-4c-.19-.65-.66-1.4-.48-1.92.84-2.29-.73-4.3-.63-6.51s-.13-4.2-.16-6.31a7.85,7.85,0,0,1,1.28-4.9c1.38-1.9,2.89-3.71,3.48-6.11-.42-.38-.91-.81-1.5-1.31a19.46,19.46,0,0,1,1.59-2c.82-.79,1.14-.72,2.33.27l-2,2.15c1.29.44,1.55.38,1.88-.61a8.13,8.13,0,0,0,.24-1.49,3.11,3.11,0,0,0-.19-1.16c-.87-1.61-1.24-3.14.31-4.63.28-.27.27-.95.2-1.43-.15-.89-.44-1.78-.65-2.67-.05-.16,0-.41-.12-.48-2.62-1.69-1.76-4.1-1.35-6.44,0-.24.13-.5.21-.81l4-2.5c1.7.36,1.7.36,2.78,1.72a13.64,13.64,0,0,1,8.4-.32c2.3.62,4.59,1.52,6.16,3.72a10.66,10.66,0,0,0,3.44,3.3c1.27.68,1.73,2.08,2.35,3.29a5.45,5.45,0,0,1,.43,1.44c.08.48.28,1.2,0,1.44-1.53,1.6-1.23,3.38-.54,5.29a3.23,3.23,0,0,0-2.78,3.14c-.21,1.44-.32,2.89-.48,4.52,1.91.59,3.65-1.07,5.66-.64-.11-1-.19-1.84-.3-2.81l2.24.11c.65-1.08,1.31-2.14,2.12-3.45.34.62.78,1.06.74,1.44-.08,1.11.72,1.25,1.32,1.07a2.61,2.61,0,0,1,2.17,0c.56.28,1.45-.17,2.11,0A3.31,3.31,0,0,1,341,38.66a18.3,18.3,0,0,0,2.68,6.54c1.29,1.91,1,3.17-1,4.42-1.39.91-2.8,1.79-4.21,2.66a5.73,5.73,0,0,1-1.36.72c-2.81.94-3.34,1.47-4.37,4.53a1.7,1.7,0,0,1-.43.61c-2.51,2.56-1.79,6.1-2.79,9.13-.22.71.18,1.63.33,2.67a5.87,5.87,0,0,0-1.14,1.59c-.53,1.66-2.2,2.3-3,3.67-.35.55-1.15.27-1.57-.24s-.84-1.31-1.28-2c-1.76,0-3.52,0-4.89-1.15l-.71-3a5.21,5.21,0,0,1-4-3.17,3.51,3.51,0,0,0-1.54-1.68c-.49-.24-.68-1.08-1.23-2.08l-1.53-.38c-.63,1.82-2.13,3.12-1.68,5.1-1.52,2.47-.62,5.36-1.37,8a8.94,8.94,0,0,0,.05,2.62c-.81.93-2.3,1.22-3,2.55a2.72,2.72,0,0,1-2.28,1,9.89,9.89,0,0,0-2.73.86c0,1.33-.13,2.43-.07,3.53.08,1.39.33,2.68,1.88,3.35a14,14,0,0,1,2,1.5c1.67,1.1,2.95,1,4.2-.59a2,2,0,0,1,1.45-.84,7.31,7.31,0,0,0,4.07-1.79c.16-.58.35-1.34.57-2.15.23,0,.52-.2.7-.12a39.86,39.86,0,0,1,4.07,2.07,8.41,8.41,0,0,1,1.66,1.87c-.44.83-.77,1.51-1.16,2.16a3.28,3.28,0,0,0-.77,2.28,1.88,1.88,0,0,1-1.23,2.09c-1.05.37-1,1.34-1.21,2.2l2.32,1.42a8,8,0,0,1,4,6.48,4,4,0,0,1-.71,2.88c-1.34,1.93-2.57,3.94-4,5.77-.73.92-1.55,1.84-3.21,1.23a2.23,2.23,0,0,0-2.82,1.61,4.82,4.82,0,0,1-2.87,3.07,1.61,1.61,0,0,0-1,1.65,4.24,4.24,0,0,0,3.16,1.17,43,43,0,0,0,5.08.1,3.12,3.12,0,0,1,1.43.36,12.11,12.11,0,0,1,2,1.15c2.29,1.7,4.59,1.5,6.89,0l3.52-2.23,2.81.11c1.55,0,2.67,1.06,3.92,1.76a1.3,1.3,0,0,1,.38.92c0,.76,0,1.52-.06,2.29-.05,1.93-.05,1.93-2.07,2.39.65,2.33.24,3.4-2,4.87a6.92,6.92,0,0,0-3,3.36,2.18,2.18,0,0,1-1.06.92A83.87,83.87,0,0,0,371.2,98.22c.85-2,1.69-4.06,2.54-6.1.35-.85.72-1.7,1-2.58a35.19,35.19,0,0,1,1.42-3.42A83.23,83.23,0,0,0,380,67.23c0-1.19.05-2.38.06-3.57,0-3.37,0-6.75-.07-10.13a5.31,5.31,0,0,0-.16-1.26,6.31,6.31,0,0,1-.24-3.05,83.34,83.34,0,0,0-9.29-28.7C369.37,18.77,368.39,17.07,367.32,15.38ZM335.79,58c.09-.32.17-.65.26-1C336.61,57.72,336.61,57.72,335.79,58ZM256.47.43c-.87,1.91-1.63,3.72-1.43,5.76a1.84,1.84,0,0,1-.23,1c-1.17,1.83-2.61,3.64-4.72,4.1-2.37.53-4.68,1.25-7,1.95-.39.13-.82.16-1.19.32a22.33,22.33,0,0,1-3.73,1.65A12,12,0,0,0,234.51,17a6.06,6.06,0,0,0-2.8,6.2c2.89,1.47,3.95,1.59,6,.73l1.63,1.94c1.13-1.15,1.95-2.41,3.24-2.66,3.68,2,5.51,4.63,3.46,9a15,15,0,0,1-2.77,1.28,4.63,4.63,0,0,0-2.57,1.83c-.36-.21-.68-.36-.95-.53a7,7,0,0,0-7.25-.39,21.16,21.16,0,0,1-5.06,1.38c-1.33.26-2.43-.7-2-1.83.59-1.63-.16-3.21.18-4.8.19-.91,0-2,.41-2.74a2.33,2.33,0,0,0,.19-2.15c-.84-2.07-.21-3.8.82-5.56.83-1.37,1.52-2.83,2.47-4.63,2.4-.9,3.91-3.51,5.8-5.64a14,14,0,0,1,3.61-2.74c.18,1.49.32,2.71.46,4,0,.07.1.13.2.29l1.65.39,2.3-1.45c0-1.3-.64-2.56.05-3.89a1.19,1.19,0,0,0-.63-1.62c-.6-.27-.33-1,0-1.37a1.83,1.83,0,0,1,2.28-.7,2,2,0,0,0,2.37-.57A17.18,17.18,0,0,0,249-1.48,27.91,27.91,0,0,0,252.66-2c1.91-.52,1.88-.6,2.84.87Zm17.92-4-5.07,8.3a4.5,4.5,0,0,0-.72,0c-1.74.26-3.48.62-5.22.76a3,3,0,0,1-2.12-.57,3.34,3.34,0,0,1,.2-5,7.45,7.45,0,0,1,2-1.23c2.61-.94,5.33-1.56,7.75-3a4.3,4.3,0,0,1,2.46-.13C274-4.4,274.17-3.85,274.39-3.59ZM333.24,26.8c-.68,3.43-.68,3.43-2.88,4.18-.26-.67-.32-1.66-.82-1.95-1.59-1-1.39-2.34-1.2-4C330.35,25.1,331.74,26.12,333.24,26.8Z"/><path class="cls-3" d="M224.8,91.18c-.18-.19-.35-.4-.52-.6l.3-.2c.12.24.24.48.35.72C224.94,91.11,224.8,91.19,224.8,91.18Z"/><path class="cls-3" d="M272.17,56c.77,1.84.77,1.84.5,3.08C270.84,58.25,270.76,57.71,272.17,56Z"/><path class="cls-3" d="M233.53,106.8c-1.41-.25-2.4-.1-2.93-1.17a3.93,3.93,0,0,1,0-3.46,1.25,1.25,0,0,1,1-.58c.45,0,1.14.37,1.22.7C233.12,103.65,233.26,105.06,233.53,106.8Z"/><path class="cls-3" d="M228.14,45.23l-.12.08.08-.08Z"/><path class="cls-3" d="M233.37,13.57s.12-.1.12-.09c.18.2.35.41.52.61l-.3.2C233.59,14.05,233.47,13.81,233.37,13.57Z"/><path class="cls-3" d="M229.67,31.55c-.1,1-.74,1.5-1.9,2-1.53-2.3-.3-4.1.64-5.93,1.84.42,1.94.52,1.69,1.89C230,30.19,229.73,30.86,229.67,31.55Z"/><path class="cls-3" d="M274.23,133.39c-1.24.12-1.8-.57-2.21-1.82C274.07,132,274.07,132,274.23,133.39Z"/><path class="cls-3" d="M266.62,74.85a4.59,4.59,0,0,1,2.76,2.89,5,5,0,0,1,.09,1.73c-2.22.08-2.27-1.83-3.3-2.82C266.33,76,266.47,75.45,266.62,74.85Z"/><path class="cls-3" d="M272.5,74.82a3.58,3.58,0,0,1-2-3.52c0-1.49.87-2.31,2.46-2.68.13.4.52,1.09.37,1.24-.84.82-.32,1.71-.33,2.59l2.26,1C274.48,75.32,274,75.51,272.5,74.82Z"/><path class="cls-3" d="M275.22,81.2l1.68,2.66C275.08,83.34,274.89,83,275.22,81.2Z"/><path class="cls-3" d="M256.3,51.47a12.81,12.81,0,0,1-.14-1.52,9.33,9.33,0,0,1,1.2-4.92,2.23,2.23,0,0,1,2.37-1.16,5.24,5.24,0,0,1,1.42.69c-3,2.52-3.43,4.14-2.46,7.9C257,53.3,256.53,53.11,256.3,51.47Z"/><path class="cls-3" d="M258.49,114.66c-.24-1.06.62-1.71,1.53-2.15s2.06-.12,2,1c-.06,1.81,1,3,1.79,4.43A4.33,4.33,0,0,0,266.6,120c1.84.52,2.06,1,1.38,2.77a7.18,7.18,0,0,1-.7,1.1,6.61,6.61,0,0,1-4.74-1.11c-1.53-.9-2-2.52-3-3.8S258.82,116.11,258.49,114.66Z"/><path class="cls-3" d="M260.52,51.33l1.56.43-1.81.89Z"/><path class="cls-3" d="M222.62,64.44c.86,2.19,1.48,4.19-.25,6.14-1.75-2.07-2-2.73-1.69-4.35C220.85,65.21,221.49,64.79,222.62,64.44Z"/><path class="cls-3" d="M226.11,84.15c-.72-1.78-.1-3.19.9-4.59,4.74,2.65,5.52,8,3.77,12.29l-1.9-.47c-.73-1.57-1.55-3.15-2.22-4.8C226.34,85.83,226.42,84.92,226.11,84.15Z"/><path class="cls-3" d="M263.93,130.11c-2.16.34-2.16.34-3-1.67Z"/><path class="cls-3" d="M239.12,96.21a7.44,7.44,0,0,1,.5-2.11l2.21.65c-.14,1.25,1,2.4.22,3.9a8.76,8.76,0,0,1-2.11-.92A2.3,2.3,0,0,1,239.12,96.21Z"/><path class="cls-3" d="M229.2,63.69h-1.93c-1.81-1.53-1.68-3.3-1.45-5.14l2.06-1.3C229.44,59.35,230.17,61.35,229.2,63.69Z"/><path class="cls-3" d="M218.87,53.54c.39-.64.75-1.31,1.26-2.21.62.24,1.27.47,2.35.87.07,1.7.16,3.45.19,5.21a1.31,1.31,0,0,1-.47.86,2.87,2.87,0,0,1-2.9.55c-.85-.32-1.06-1.14-1.12-2.1A5.14,5.14,0,0,1,218.87,53.54Z"/><path class="cls-3" d="M272.56,89.6a2.63,2.63,0,0,1-2.57.84,4.63,4.63,0,0,1-3.27-2.22c-2.43-1.23-2-3.27-1.5-5.32a1,1,0,0,1,1.42-.78c.7,1.49.57,3.29,1.67,4.68S271,88.68,272.56,89.6Z"/><path class="cls-3" d="M248,111.46c-.49-.63-.4-1.78-.95-2.27-1.5-1.36-2.22-3.31-3.59-4.64s-2.75-2.51-4.89-2.07c-1.42,2.61-.64,5.23.48,7.52a18.49,18.49,0,0,0,5.61,7.21,15.32,15.32,0,0,0,3.58,1.73,1.94,1.94,0,0,0,2.49-.72A15.8,15.8,0,0,0,248,111.46Zm-1.07,2.1-1.36-.13c0-.53-.1-1-.13-1.5,0,0,.1-.11.36-.38A2.12,2.12,0,0,1,246.94,113.56Z"/><path class="cls-3" d="M272.05,111.36a1.08,1.08,0,0,0-.6-.79c-1.2-.47-1.39-1.67-2-2.42a3.64,3.64,0,0,1,2.21-3,20.48,20.48,0,0,1,3.51,2.28A23.38,23.38,0,0,0,280,111a6.72,6.72,0,0,0,6.14.34c1.71-.8,2.83-.5,4.3.6-.22.91-.14,2.22-.75,2.76a13.38,13.38,0,0,0-2.44,3.5c-1.34,2.21-3.45,2.84-5.87,2.79-.64-.79-1.56-.38-2.09-.12-1.36.66-2.25-.17-2.9-.91-1-1.17-2.18-2.52-2.43-3.95C273.63,114.28,271.92,113.21,272.05,111.36Z"/><path class="cls-3" d="M255.23,61.11c-.55-.45-1.3-.77-1.34-1.17a3.56,3.56,0,0,1,.51-2.13,1.5,1.5,0,0,1,2.26-.23c.53.56.47,1.1-.25,2Z"/><path class="cls-3" d="M258,101.82c-.93-2.12-2.83-3.34-4.45-4.82-.3-.28-.67-.5-1-.79a4.89,4.89,0,0,0-3.65-1.84,3,3,0,0,1-1.48-.42c-1.88-1-4.19-1.43-5.52-3.38-1.52-.52-2.18-1.86-2.95-3.09-1.07-1.7-2.21-3.36-3.2-5.1s-1.91-3.62-2.85-5.44a4.07,4.07,0,0,1,0-3.81,1.51,1.51,0,0,1,1.84.88,7.9,7.9,0,0,0,2.5,2.85,42.79,42.79,0,0,0,8.37,5.51,3.73,3.73,0,0,0,1.65.6,9,9,0,0,0,3.42-.66A9.06,9.06,0,0,0,253,80a2.17,2.17,0,0,0,.62-1.85c-.1-.64,0-1.65.36-2,1.3-1,1.52-2.42,1.89-3.83a2.16,2.16,0,0,1,1.74-1.77,4.38,4.38,0,0,0,2.5-2.1,7.56,7.56,0,0,1,4.29-3.7c.2.42.51.76.46,1-.23,1.29-.22,2.78-.9,3.79-1.63,2.43-1.62,5.51-3.48,7.84-.74.92-1,4.77-1,6.1a2.07,2.07,0,0,1-.12.9,8.07,8.07,0,0,0-.19,5.48c.71,2.83,1.45,5.65,2.27,8.45a2.7,2.7,0,0,1-.43,2.41l-1.33,2A1.48,1.48,0,0,1,258,101.82Z"/><path class="cls-3" d="M246.46,66.09l1.54.4c-.09.37-.18.69-.31,1.2Z"/><path class="cls-3" d="M249.33,73.18c0-.35,0-.7.07-1.05l.35,0a6.43,6.43,0,0,1,0,1S249.49,73.14,249.33,73.18Z"/><rect class="cls-7" x="-94.5" y="414.59" width="483.76" height="64.1" transform="translate(294.76 893.28) rotate(180)"/><path class="cls-8" d="M-80.09,388.42c0,23.68,16.82,39.75,40.49,39.75A42.88,42.88,0,0,0,3.28,385.3,42.87,42.87,0,0,0-39.6,342.43C-63.27,342.43-80.09,364.74-80.09,388.42Z"/><polygon class="cls-8" points="110.49 414.14 172.29 414.16 169.13 303.69 113.2 303.69 110.49 414.14"/><circle class="cls-8" cx="217.77" cy="364.65" r="22.67"/><circle class="cls-8" cx="194.47" cy="383.55" r="17.39"/><circle class="cls-8" cx="162.78" cy="375.68" r="21.01" transform="translate(-81.27 46.94) rotate(-13.16)"/><circle class="cls-8" cx="173.37" cy="401.36" r="17.97"/><circle class="cls-8" cx="144.24" cy="400.13" r="22.98" transform="translate(-240.69 219.19) rotate(-45)"/><circle class="cls-8" cx="121.98" cy="370.28" r="24.46"/><circle class="cls-8" cx="111.96" cy="407.7" r="23.58"/><circle class="cls-8" cx="89.33" cy="365.39" r="13.41" transform="translate(-232.21 170.18) rotate(-45)"/><circle class="cls-8" cx="55.89" cy="361.1" r="26.68"/><circle class="cls-8" cx="234.81" cy="339.1" r="13.7" transform="translate(-171.01 265.36) rotate(-45)"/><circle class="cls-8" cx="41.84" cy="310.83" r="10.63" transform="translate(-183.33 92.51) rotate(-38.22)"/><path class="cls-8" d="M22.77,292.11a4.41,4.41,0,1,0,4.4-4.4A4.4,4.4,0,0,0,22.77,292.11Z"/><path class="cls-8" d="M182.05,354.8a4.41,4.41,0,1,0,4.4-4.41A4.41,4.41,0,0,0,182.05,354.8Z"/><path class="cls-8" d="M264.83,292.23a6.5,6.5,0,1,0,6.5-6.5A6.5,6.5,0,0,0,264.83,292.23Z"/><circle class="cls-8" cx="216.37" cy="340.02" r="7.97" transform="translate(-177.05 252.59) rotate(-45)"/><circle class="cls-8" cx="53.31" cy="333.42" r="7.97" transform="translate(-68.04 18.32) rotate(-11.98)"/><path class="cls-8" d="M232.32,305.91a4.61,4.61,0,1,0,4.61-4.61A4.62,4.62,0,0,0,232.32,305.91Z"/><path class="cls-8" d="M254.93,306.91a1.92,1.92,0,1,0,1.92-1.92A1.92,1.92,0,0,0,254.93,306.91Z"/><path class="cls-8" d="M84.56,344.72a1.92,1.92,0,1,0,1.92-1.91A1.92,1.92,0,0,0,84.56,344.72Z"/><path class="cls-8" d="M3.35,296.52a1.92,1.92,0,1,0,1.92-1.92A1.92,1.92,0,0,0,3.35,296.52Z"/><path class="cls-8" d="M72.52,431.55H-1.72a40.31,40.31,0,0,1-.86-8.28c0-.33,0-.66,0-1a48.3,48.3,0,0,1-11.39-77.94,35.05,35.05,0,0,1-.26-4.12A33.72,33.72,0,1,1,53,344.39a48.41,48.41,0,0,1,12.1,18.69,28.67,28.67,0,0,1,37.4,38.14,25.76,25.76,0,0,1,5.26,4.9,44.24,44.24,0,0,1,41.87,3.38,35.38,35.38,0,0,1,34.33-7.57,37.69,37.69,0,0,1,36-26.74c1,0,2,.05,3,.13a27.71,27.71,0,0,1,9.23-13.07,34.41,34.41,0,1,1,61.77,7.54,41.22,41.22,0,0,1-9.83,75.39V431.64H72.52Z"/><path class="cls-7" d="M264.83,382.56a31.11,31.11,0,1,0-31.11-31.11A31.14,31.14,0,0,0,264.83,382.56Z"/><circle class="cls-7" cx="264.83" cy="351.45" r="28.91"/><circle class="cls-7" cx="273.17" cy="405.43" r="37.97"/><circle class="cls-7" cx="273.17" cy="405.43" r="35.77" transform="translate(-62.07 49.6) rotate(-9.32)"/><path class="cls-7" d="M249.12,408.3a24.3,24.3,0,1,0-24.3-24.3A24.33,24.33,0,0,0,249.12,408.3Z"/><circle class="cls-7" cx="249.12" cy="384" r="22.1"/><path class="cls-7" d="M219.94,447.14a34.33,34.33,0,1,0-34.32-34.33A34.37,34.37,0,0,0,219.94,447.14Z"/><path class="cls-7" d="M87.83,444.54a22.32,22.32,0,1,0-22.31-22.32A22.34,22.34,0,0,0,87.83,444.54Z"/><circle class="cls-7" cx="87.83" cy="422.22" r="20.12" transform="translate(-259.57 166.69) rotate(-41.91)"/><path class="cls-7" d="M76.31,414.85a25.39,25.39,0,1,0-25.38-25.39A25.42,25.42,0,0,0,76.31,414.85Z"/><circle class="cls-7" cx="76.31" cy="389.46" r="23.19"/><path class="cls-7" d="M37.94,460.49A37.22,37.22,0,1,0,.72,423.27,37.26,37.26,0,0,0,37.94,460.49Z"/><circle class="cls-7" cx="37.94" cy="423.27" r="35.02"/><circle class="cls-7" cx="19.49" cy="379.25" r="42.87" transform="translate(-339.67 255.92) rotate(-68.11)"/><path class="cls-7" d="M19.52,370.64A30.42,30.42,0,1,0-10.9,340.22,30.46,30.46,0,0,0,19.52,370.64Z"/><circle class="cls-7" cx="19.52" cy="340.22" r="28.22"/><path class="cls-7" d="M173.36,467.89a32.14,32.14,0,1,0-32.13-32.14A32.18,32.18,0,0,0,173.36,467.89Z"/><path class="cls-7" d="M125.53,487.88a41.1,41.1,0,1,0-41.1-41.1A41.15,41.15,0,0,0,125.53,487.88Z"/><circle class="cls-7" cx="125.53" cy="446.78" r="38.9"/><path class="cls-3" d="M160.46,405.38c-.38-24.7-1.52-99.06-1.55-102.45h3.34c0,3.38-1.17,77.57-1.55,102.35Z"/><path class="cls-3" d="M165.3,403.49c.49-21.63,1.27-55.74,1.27-55.74s.77,33.41,1.26,55.07A16.52,16.52,0,0,0,165.3,403.49Z"/><path class="cls-3" d="M151.12,304.33h3.34c0,1.84-1.67,50-1.67,50S151.16,306.17,151.12,304.33Z"/><path class="cls-3" d="M146,409.86c.48-19.3,1.41-57.15,1.41-57.15s1,38.35,1.42,57.54Z"/><path class="cls-3" d="M127.23,304.33h3.35c0,3.43-1.67,93.15-1.67,93.15S127.27,307.76,127.23,304.33Z"/><path class="cls-3" d="M138.48,333.51h3.34c0,2-1.67,55.16-1.67,55.16S138.52,335.55,138.48,333.51Z"/><path class="cls-3" d="M121.38,404.85c.47-24.29,1.29-67.78,1.34-69.09.06,1.3.88,44.32,1.35,68.68A15.87,15.87,0,0,0,121.38,404.85Z"/><path class="cls-3" d="M132.52,404.59c.49-16.22,1.18-38.71,1.18-38.71s.7,23,1.2,39.25A17.12,17.12,0,0,0,132.52,404.59Z"/><path class="cls-3" d="M117.26,304.66h3.34c0,1.45-1.67,39.5-1.67,39.5S117.3,306.11,117.26,304.66Z"/><path class="cls-3" d="M114,405.36c.48-25.17,1.37-72.09,1.37-72.09s.88,46.29,1.36,71.57A15.49,15.49,0,0,0,114,405.36Z"/><circle class="cls-7" cx="264.83" cy="351.45" r="28.91"/><circle class="cls-7" cx="283.32" cy="384" r="27.84" transform="translate(-75.87 69.82) rotate(-12.4)"/><circle class="cls-7" cx="271.56" cy="422.12" r="21.59" transform="translate(-95.45 79.73) rotate(-14.23)"/><circle class="cls-7" cx="225.69" cy="433.63" r="10.08"/><circle class="cls-7" cx="19.52" cy="340.22" r="28.22"/><circle class="cls-7" cx="5.27" cy="424.99" r="22.02" transform="translate(-98.43 12.81) rotate(-13.41)"/><path class="cls-9" d="M45,336.06a24.52,24.52,0,0,0-2.65-8.59,25.29,25.29,0,0,0-5.65-7.08,25.09,25.09,0,0,0-16.87-6A25.06,25.06,0,0,0,3.29,321.3,25.21,25.21,0,0,0-2,328.67a24.18,24.18,0,0,0-2.17,8.73,25.27,25.27,0,0,1,8-15.53A24.69,24.69,0,0,1,36.18,321,25.33,25.33,0,0,1,45,336.06Z"/><path class="cls-9" d="M38.63,330.39A19.18,19.18,0,0,0,19,319.1a25.89,25.89,0,0,1,11.15,3.32A25.91,25.91,0,0,1,38.63,330.39Z"/><circle class="cls-7" cx="219.94" cy="412.81" r="32.12" transform="translate(-79.88 53.79) rotate(-11.82)"/><path class="cls-9" d="M246.77,401.1a28.95,28.95,0,0,0-11.83-14A29.2,29.2,0,0,0,200,390.53a28.75,28.75,0,0,0-8.89,16,30.23,30.23,0,0,1,9.42-15.44,29.27,29.27,0,0,1,7.67-4.85A30.38,30.38,0,0,1,217,384a29.67,29.67,0,0,1,17.53,3.77A30.58,30.58,0,0,1,246.77,401.1Z"/><path class="cls-9" d="M223.84,387.5a22.57,22.57,0,0,0-4.78-.59,26.26,26.26,0,0,0-4.84.45,24.27,24.27,0,0,0-8.95,3.74,23.79,23.79,0,0,0-6.77,7,25.86,25.86,0,0,0-2.19,4.33,24.41,24.41,0,0,0-1.22,4.66,28.45,28.45,0,0,1,4.06-8.56,26.4,26.4,0,0,1,6.69-6.56,26.89,26.89,0,0,1,8.55-3.82A27.74,27.74,0,0,1,223.84,387.5Z"/><path class="cls-9" d="M285.8,337.57a26.34,26.34,0,0,0-5.8-5.89,26,26,0,0,0-7.43-3.77,26.79,26.79,0,0,0-16.54.26,25.79,25.79,0,0,0-17.32,26,27.07,27.07,0,0,1,4.92-15.37,26.09,26.09,0,0,1,5.62-5.82,27.17,27.17,0,0,1,7.12-3.82,26.39,26.39,0,0,1,16-.47A27.33,27.33,0,0,1,285.8,337.57Z"/><path class="cls-9" d="M269.5,332.34a20.8,20.8,0,0,0-4.91-.79,21.14,21.14,0,0,0-20,12.81,20.48,20.48,0,0,0-1.58,9.78,24.1,24.1,0,0,1,.67-4.87,21.14,21.14,0,0,1,1.62-4.58,22.38,22.38,0,0,1,14.5-11.93A23.55,23.55,0,0,1,269.5,332.34Z"/><circle class="cls-7" cx="76.31" cy="389.46" r="23.19"/><path class="cls-9" d="M97.62,394.49a21.32,21.32,0,0,0-1.42-14.8,21.46,21.46,0,0,0-26-10.95,21.27,21.27,0,0,0-11.64,9.32l.14.09a21.5,21.5,0,0,1,38.88,16.34Z"/><path class="cls-9" d="M94.61,394A17.16,17.16,0,0,0,92,378.86a16.75,16.75,0,0,0-6-5.19,17.32,17.32,0,0,0-7.59-2v.16a20.68,20.68,0,0,1,3.75.89,16.12,16.12,0,0,1,1.77.74,15,15,0,0,1,1.68.9,18.92,18.92,0,0,1,8.73,11.9A19.86,19.86,0,0,1,94.61,394Z"/><circle class="cls-7" cx="61.7" cy="454.19" r="29.21"/><path class="cls-9" d="M88.53,460.52a26.76,26.76,0,0,0-1.79-18.64,26.82,26.82,0,0,0-13.76-13,26.86,26.86,0,0,0-33.59,11l.17.11a27.07,27.07,0,0,1,49,20.57Z"/><path class="cls-9" d="M84.74,459.85a21.6,21.6,0,0,0-3.26-19,20.8,20.8,0,0,0-7.54-6.53,21.64,21.64,0,0,0-9.56-2.48l0,.2a25.77,25.77,0,0,1,4.72,1.13,17.47,17.47,0,0,1,2.23.93,19.6,19.6,0,0,1,2.12,1.13,23.74,23.74,0,0,1,11,15A25,25,0,0,1,84.74,459.85Z"/><circle class="cls-7" cx="173.36" cy="435.75" r="29.93" transform="translate(-94.33 50.69) rotate(-13.11)"/><path class="cls-9" d="M194,418a25.32,25.32,0,0,0-11.69-9.48,24.86,24.86,0,0,0-7.47-1.73,26.71,26.71,0,0,0-7.67.59,25.33,25.33,0,0,0-19.41,21.4l.16,0a25.9,25.9,0,0,1,19.48-20.45A26,26,0,0,1,194,418Z"/><path class="cls-9" d="M179.41,411.5a21.28,21.28,0,0,0-7-1,21.94,21.94,0,0,0-7,1.34,23.81,23.81,0,0,0-3.25,1.48,22.88,22.88,0,0,0-2.95,2,21.82,21.82,0,0,0-4.73,5.24l.13.1a27.22,27.22,0,0,1,5.1-4.68,26,26,0,0,1,12.73-4.73A27.31,27.31,0,0,1,179.41,411.5Z"/><path class="cls-9" d="M145.82,416.54a32.11,32.11,0,0,0-31.31-5.7,32.63,32.63,0,0,0-9.59,5.4l.1.13a35.8,35.8,0,0,1,9.75-4.74,35.1,35.1,0,0,1,10.66-1.6,35.76,35.76,0,0,1,20.39,6.51Z"/><path class="cls-9" d="M131.93,413.84a17.08,17.08,0,0,0-3.15-.95,17.9,17.9,0,0,0-3.27-.37,18.35,18.35,0,0,0-6.5,1l0,.16c1.09,0,2.17-.1,3.24-.1s2.14,0,3.2,0,2.13.07,3.21.11S130.84,413.77,131.93,413.84Z"/><path class="cls-9" d="M105.62,428.39a21.27,21.27,0,0,0-1.43-14.8,21.22,21.22,0,0,0-10.93-10.32A21.31,21.31,0,0,0,66.6,412l.14.09a21.49,21.49,0,0,1,38.88,16.33Z"/><path class="cls-9" d="M102.06,419.65a16.4,16.4,0,0,0-1.89-5.15,16.64,16.64,0,0,0-8.33-7.13,15.77,15.77,0,0,0-5.4-1.1l0,.16a21.61,21.61,0,0,1,5.09,1.7A21.35,21.35,0,0,1,96,411a21.74,21.74,0,0,1,3.58,3.9A23.23,23.23,0,0,1,102.06,419.65Z"/><circle class="cls-7" cx="249.12" cy="384" r="22.1"/><path class="cls-9" d="M261.22,368.29a21,21,0,0,0-9.87-3.64,20.72,20.72,0,0,0-10.5,1.67,22.62,22.62,0,0,0-4.61,2.76,22,22,0,0,0-3.74,3.85,21.06,21.06,0,0,0-4,9.77l.16,0a22.07,22.07,0,0,1,12.57-15.49,21.76,21.76,0,0,1,4.91-1.5,20.49,20.49,0,0,1,5.13-.34A22.27,22.27,0,0,1,261.22,368.29Z"/><path class="cls-9" d="M253.54,368.9a16.79,16.79,0,0,0-7.2-.22,17.23,17.23,0,0,0-14,15l.16,0a19.28,19.28,0,0,1,14-14.3A20,20,0,0,1,253.54,368.9Z"/><path class="cls-9" d="M253.52,372.59a12.26,12.26,0,0,0-4.18-.53,12.86,12.86,0,0,0-10.52,6.4l.13.09a18.33,18.33,0,0,1,6.59-4.64,18.39,18.39,0,0,1,3.87-1.09A19.34,19.34,0,0,1,253.52,372.59Z"/><path class="cls-9" d="M299.36,367.75a23.67,23.67,0,0,0-4.89-4,22.39,22.39,0,0,0-12.21-3.29,23.13,23.13,0,0,0-12.14,3.8,23.2,23.2,0,0,0-4.8,4.26A22.65,22.65,0,0,0,260.19,380l.16,0a23.53,23.53,0,0,1,5.59-11,23.79,23.79,0,0,1,10.28-6.59,25,25,0,0,1,6.07-1.06,25.48,25.48,0,0,1,6.15.56,24.64,24.64,0,0,1,5.83,2.15A27.81,27.81,0,0,1,299.36,367.75Z"/><path class="cls-9" d="M289,365.66a17.91,17.91,0,0,0-15.68,1.44,17.95,17.95,0,0,0-8.55,13.25l.16,0a19.67,19.67,0,0,1,16.21-15.07A20.66,20.66,0,0,1,289,365.66Z"/><path class="cls-9" d="M286.53,410.28a20.17,20.17,0,0,0-4.24-3.51,19.57,19.57,0,0,0-10.66-2.91A20.12,20.12,0,0,0,261,407.18a20.37,20.37,0,0,0-4.19,3.73A19.81,19.81,0,0,0,252.38,421l.16,0a20.5,20.5,0,0,1,13.85-15.27,21.89,21.89,0,0,1,5.27-.92,22.35,22.35,0,0,1,5.34.47,22.1,22.1,0,0,1,5.08,1.85A24.56,24.56,0,0,1,286.53,410.28Z"/><path class="cls-9" d="M276.91,408.83a15.4,15.4,0,0,0-20.51,12.83l.16,0a17.74,17.74,0,0,1,2.77-6.05,17.32,17.32,0,0,1,4.77-4.5,17,17,0,0,1,6.12-2.38A17.93,17.93,0,0,1,276.91,408.83Z"/><path class="cls-10" d="M198.28,203.6s-.14,1.9-.38,5l1.61,1c13.85,9,21.49,23.36,19.92,37.57l-7.26,66c-1,8.78-7,16.35-16,20.26l-4,1.7a8.19,8.19,0,0,1-3.26.66,8.69,8.69,0,0,1-6.07-2.47,6.6,6.6,0,0,1-2-4.69l.68-53.36h-1L192.54,191A14.53,14.53,0,0,1,198.28,203.6Z"/><path class="cls-8" d="M106.41,77.55h70.2c10.54,30.05,11.36,67.5,8.95,110.55a14.39,14.39,0,0,1,7,2.85l-11.92,84.42h-2.84v-.06l-.39.08c-1.27.27-2.54.53-3.81.77l-1.19,4-61.18,1.92-1.77-5.92c-.9-.16-1.79-.34-2.68-.52L97,188.18l.46-.08C95.05,145.05,95.87,107.6,106.41,77.55Z"/><path class="cls-10" d="M138.35,30.92a26.45,26.45,0,0,1,3.16-2.55,19.56,19.56,0,0,1,3.16,2.55C160,43.39,170.14,59.07,176.61,77.55c-20.93,5.53-44.74,4.62-70.2,0C112.88,59.07,123,43.39,138.35,30.92Z"/><path class="cls-10" d="M170.32,287v17l-1.73.26a185.66,185.66,0,0,1-19.54,1.94l-.54,22.92a6.92,6.92,0,0,1-6.95,6.78h-.1a7,7,0,0,1-7-6.78L134,306.25a163.39,163.39,0,0,1-19.56-2L112.7,304V287l-1.49-5,61.18-1.92Z"/><path class="cls-8" d="M83.51,209.68l1.61-1c-.24-3.14-.38-5-.38-5A14.54,14.54,0,0,1,97,188.18l9.76,87.43-1.11-.22-.41-.08v.06h-3.8l.68,53.36a6.6,6.6,0,0,1-2,4.69,8.69,8.69,0,0,1-6.07,2.47,8.19,8.19,0,0,1-3.26-.66l-4-1.71c-9.06-3.9-15.05-11.47-16-20.25l-7.26-66C62,233,69.66,218.64,83.51,209.68Z"/><path class="cls-7" d="M114.41,304.25,112.7,304V282.24h57.62V304l-1.73.26A183.13,183.13,0,0,1,141,306.4,163.22,163.22,0,0,1,114.41,304.25Zm51.83-17.92H116.78v14.16a167.63,167.63,0,0,0,49.46,0Z"/><path class="cls-7" d="M115.37,300.79c11.9,4,32.34,3.44,52.5,0-13.63-2.38-19.2-10.23-25.2-17.21l-27.3,5.81Z"/><path class="cls-7" d="M169.81,288.71l4.6-15.31a146.62,146.62,0,0,1-65.8,0l4.6,15.31C131.32,292,150.42,292.62,169.81,288.71Z"/><path class="cls-7" d="M105.65,275.39l-1.5-.31-.12-1.52q-1.09-13.74-2.21-26.94c-8.2-98.43-14.68-176.18,38.44-217.28l1.25-1,1.25,1c53.12,41.09,46.64,118.84,38.44,217.27q-1.11,13.21-2.21,26.95l-.12,1.51-1.48.32a169.17,169.17,0,0,1-35.56,3.79A178.15,178.15,0,0,1,105.65,275.39Zm71.48-29.11c8-96.41,14.39-172.72-35.62-212.73-50,40-43.65,116.33-35.62,212.73q1,12.48,2.09,25.42a168.05,168.05,0,0,0,67.06,0Q176.08,258.77,177.13,246.28Z"/><path class="cls-7" d="M175.3,246.23q-1,11.4-1.91,23.21C175.94,180.46,190.92,89,142,36.55,189.45,76.24,183.19,151.46,175.3,246.23Z"/><path class="cls-7" d="M140.9,36.73l.33-.3C123,96.22,127.67,215.31,143.17,269.31H125.33C118.46,175.74,110.61,100.21,140.9,36.73Z"/><path class="cls-7" d="M140.9,36.73c-32.29,57.34-27,139.38-19.28,232.58H109.83q-.94-11.79-1.9-23.2C100.05,151.57,93.81,76.5,140.9,36.73Z"/><path class="cls-7" d="M192.65,275.37H177.78L183.63,188h.15a14.56,14.56,0,0,1,14.5,15.62S193,274.21,192.65,275.37Z"/><path class="cls-7" d="M90.37,275.37h14.87L99.39,188h-.15a14.56,14.56,0,0,0-14.5,15.62S90,274.21,90.37,275.37Z"/><path class="cls-7" d="M153.53,275.37l3.56-72c.41-8.34-6.48-15.43-15.42-15.43h-.32c-8.94,0-15.83,7.09-15.42,15.43l3.56,72Z"/><path class="cls-9" d="M153.8,270l3.29-66.58c.41-8.34-6.48-15.43-15.42-15.43h-.32c-8.94,0-15.83,7.09-15.42,15.43L129.22,270h-2l-3.29-66.48a16.29,16.29,0,0,1,4.55-12.13,17.61,17.61,0,0,1,12.91-5.44h.32a17.61,17.61,0,0,1,12.91,5.44,16.29,16.29,0,0,1,4.55,12.13L155.84,270Z"/><path class="cls-7" d="M182.86,333.42a6.6,6.6,0,0,1-2-4.69l.71-55.26,4-72.77,13.89,9c13.85,9,21.49,23.36,19.92,37.57l-7.26,66c-1,8.78-7,16.35-16,20.26l-4,1.7a8.19,8.19,0,0,1-3.26.66A8.69,8.69,0,0,1,182.86,333.42Zm2.83-59.82-.7,55.19a2.51,2.51,0,0,0,.78,1.76,4.56,4.56,0,0,0,3.16,1.26,4.16,4.16,0,0,0,1.65-.33l3.95-1.7c7.7-3.32,12.78-9.66,13.58-17l7.26-66c1.4-12.66-5.53-25.57-18.08-33.69l-8-5.16Z"/><path class="cls-7" d="M185.73,229.34c2.41,25.32-.36,76.6,22.92,85.86-1.52,6.64-7.29,12.37-15.85,15.49l-5.17,1.89a3.3,3.3,0,0,1-1.1.18,3.64,3.64,0,0,1-2.24-.72c-.17-.15-.25-.28-.25-.34l.91-60.92Z"/><path class="cls-7" d="M95.56,204.32,84.62,211.4C71.38,220,64.13,233.54,65.62,247l7.26,66c.89,8.05,6.41,15,14.8,18.6l3.95,1.7c3.78,1.63,8.49-.93,8.44-4.59l-.7-55.18Z"/><path class="cls-7" d="M90.83,335.23l-4-1.71c-9.06-3.9-15.05-11.47-16-20.25l-7.26-66C62,233,69.66,218.64,83.51,209.68l13.89-9,4,72.85.7,55.18a6.6,6.6,0,0,1-2,4.69,8.69,8.69,0,0,1-6.07,2.47A8.19,8.19,0,0,1,90.83,335.23Zm-5.1-122.12c-12.55,8.12-19.48,21-18.08,33.69l7.26,66c.8,7.3,5.88,13.64,13.58,17l4,1.7a4.64,4.64,0,0,0,4.81-.93,2.51,2.51,0,0,0,.78-1.76l-.69-55.1L93.72,208Z"/><path class="cls-10" d="M93.25,329.6l-4-1.7c-7-3-11.63-8.74-12.35-15.3l-7.13-64.83C77.94,298.53,80.27,320.93,93.25,329.6Z"/><path class="cls-10" d="M141.56,333.85a4.91,4.91,0,0,0,4.91-4.79l2.79-116.88a7.68,7.68,0,0,0-7.67-7.86h-.16a7.68,7.68,0,0,0-7.67,7.86l2.8,116.88a4.9,4.9,0,0,0,4.9,4.79Z"/><path class="cls-7" d="M134.51,329.11l-2.79-116.89a9.79,9.79,0,1,1,19.58,0l-2.79,116.88a6.92,6.92,0,0,1-6.95,6.78h-.1A7,7,0,0,1,134.51,329.11Zm2.89-121a5.6,5.6,0,0,0-1.6,4.07L138.6,329a2.87,2.87,0,0,0,2.86,2.8h.1a2.84,2.84,0,0,0,2.86-2.8l2.8-116.88a5.6,5.6,0,0,0-1.6-4.07,5.71,5.71,0,0,0-4.19-1.7A5.61,5.61,0,0,0,137.4,208.06Z"/><circle class="cls-11" cx="141.51" cy="120.18" r="29.22" transform="translate(-23.05 206.12) rotate(-67.92)"/><path class="cls-8" d="M110.76,120.18a30.75,30.75,0,1,1,30.75,30.75A30.79,30.79,0,0,1,110.76,120.18Zm3.07,0a27.68,27.68,0,1,0,27.68-27.69A27.71,27.71,0,0,0,113.83,120.18Z"/><circle class="cls-7" cx="141.51" cy="120.18" r="20.42"/><path class="cls-12" d="M139.47,102l18.2,26.64a18.31,18.31,0,0,1-6.68,7.1l-20-30.46A18.23,18.23,0,0,1,139.47,102Z"/><path class="cls-12" d="M129.72,106.3l19.87,30.21a18.21,18.21,0,0,1-2.63,1l-19.33-29.14A18.93,18.93,0,0,1,129.72,106.3Z"/><path class="cls-7" d="M111.92,120.18a29.59,29.59,0,1,1,29.59,29.58A29.62,29.62,0,0,1,111.92,120.18Zm3.07,0a26.52,26.52,0,1,0,26.52-26.53A26.55,26.55,0,0,0,115,120.18Z"/><circle class="cls-7" cx="141.51" cy="96.7" r="2.28"/><path class="cls-8" d="M142.38,97.11a1.47,1.47,0,0,0-1.47-1.47,1.34,1.34,0,0,0-.45.09,1.45,1.45,0,0,1,2.56,1,1.45,1.45,0,0,1-1,1.38A1.44,1.44,0,0,0,142.38,97.11Z"/><path class="cls-7" d="M139.23,143.65a2.28,2.28,0,1,0,2.28-2.28A2.29,2.29,0,0,0,139.23,143.65Z"/><path class="cls-9" d="M142.38,144.06a1.47,1.47,0,0,0-1.47-1.47,1.34,1.34,0,0,0-.45.09,1.46,1.46,0,0,1,2.56,1,1.44,1.44,0,0,1-1,1.38A1.44,1.44,0,0,0,142.38,144.06Z"/><circle class="cls-7" cx="164.99" cy="120.18" r="2.28"/><path class="cls-8" d="M165.86,120.58a1.47,1.47,0,0,0-1.47-1.47,1.34,1.34,0,0,0-.45.1,1.43,1.43,0,0,1,1.09-.51,1.46,1.46,0,0,1,.45,2.85A1.45,1.45,0,0,0,165.86,120.58Z"/><path class="cls-7" d="M115.75,120.18A2.29,2.29,0,1,0,118,117.9,2.28,2.28,0,0,0,115.75,120.18Z"/><path class="cls-9" d="M118.9,120.58a1.4,1.4,0,0,0-1.92-1.37,1.45,1.45,0,0,1,1.09-.51,1.46,1.46,0,0,1,.46,2.85A1.49,1.49,0,0,0,118.9,120.58Z"/><path class="cls-7" d="M122.63,103.58a2.28,2.28,0,1,0,2.28-2.28A2.28,2.28,0,0,0,122.63,103.58Z"/><path class="cls-9" d="M125.78,104a1.47,1.47,0,0,0-1.47-1.47,1.34,1.34,0,0,0-.45.1,1.43,1.43,0,0,1,1.09-.51,1.46,1.46,0,0,1,.45,2.85A1.45,1.45,0,0,0,125.78,104Z"/><path class="cls-7" d="M155.83,136.78a2.28,2.28,0,1,0,2.28-2.28A2.28,2.28,0,0,0,155.83,136.78Z"/><path class="cls-8" d="M159,137.18a1.46,1.46,0,0,0-1.47-1.46,1.34,1.34,0,0,0-.45.09,1.43,1.43,0,0,1,1.09-.51,1.46,1.46,0,0,1,.45,2.85A1.45,1.45,0,0,0,159,137.18Z"/><circle class="cls-7" cx="158.11" cy="103.58" r="2.28"/><path class="cls-8" d="M159,104a1.47,1.47,0,0,0-1.47-1.47,1.34,1.34,0,0,0-.45.1,1.43,1.43,0,0,1,1.09-.51,1.46,1.46,0,0,1,.45,2.85A1.45,1.45,0,0,0,159,104Z"/><path class="cls-7" d="M122.63,136.78a2.28,2.28,0,1,0,2.28-2.28A2.28,2.28,0,0,0,122.63,136.78Z"/><path class="cls-9" d="M125.78,137.18a1.46,1.46,0,0,0-1.47-1.46,1.34,1.34,0,0,0-.45.09,1.43,1.43,0,0,1,1.09-.51,1.46,1.46,0,0,1,.45,2.85A1.45,1.45,0,0,0,125.78,137.18Z"/><path class="cls-7" d="M111.92,120.18a29.59,29.59,0,1,1,29.59,29.58A29.62,29.62,0,0,1,111.92,120.18Zm3.07,0a26.52,26.52,0,1,0,26.52-26.53A26.55,26.55,0,0,0,115,120.18Z"/><path class="cls-7" d="M160,139.35l-.74.51a22.86,22.86,0,0,1-2.12,1.4,27.16,27.16,0,0,1-8.42,3.37,27.72,27.72,0,0,1-12.89-.39,26.33,26.33,0,0,1-19-22.17,27.14,27.14,0,0,1,1.57-12.79,29.36,29.36,0,0,1,4.58-7.83c.69-.86,1.33-1.44,1.71-1.88l.62-.66-.75.49c-.48.34-1.25.77-2.13,1.47a26.58,26.58,0,0,0-6.33,7.3,27.14,27.14,0,0,0,3,31.19,27.14,27.14,0,0,0,30.38,7.71,24.94,24.94,0,0,0,8.16-5.17,19.57,19.57,0,0,0,1.79-1.88Z"/><path class="cls-7" d="M146.62,322.53c.59,12.11-3.59,13.14-10,9.05l-.85-118.24C138.42,254,141.83,291.29,146.62,322.53Z"/><path class="cls-7" d="M126.33,172.63l.18-3.79c.88,0,12.79,1,24.57,1,5.87-.13,11.72-.13,16.07-.51l7.26-.45-7.2,1c-4.33.72-10.16,1.2-16.06,1.8C139.34,172.68,127.22,172.61,126.33,172.63Z"/><path class="cls-7" d="M126.31,82.31l.22-3.79c.71,0,10.35,1.15,19.85,1.61,4.73,0,9.47.25,13-.1l5.86-.35-5.81.93c-3.49.7-8.22,1-13,1.38C136.8,82.47,127,82.3,126.31,82.31Z"/><path class="cls-7" d="M152.28,225.49c5-.09,9.86-.11,13.57-.46l7-.46-7,1c-3.8.67-8.81,1.1-14,1.62C152.06,226.65,152.17,226.07,152.28,225.49Z"/><path class="cls-7" d="M161.11,75a1.27,1.27,0,0,1,.28,0,1.16,1.16,0,1,0,1.29,1.28,2.64,2.64,0,0,1,0,.29,1.6,1.6,0,0,1-3.19,0A1.6,1.6,0,0,1,161.11,75Z"/><path class="cls-7" d="M151.53,75.49a1.27,1.27,0,0,1,.28,0,1.16,1.16,0,1,0,1.29,1.28,2.85,2.85,0,0,1,0,.29,1.6,1.6,0,1,1-1.6-1.6Z"/><path class="cls-7" d="M141.51,75.49a1.27,1.27,0,0,1,.28,0,1.16,1.16,0,1,0,1.29,1.28,2.85,2.85,0,0,1,0,.29,1.6,1.6,0,1,1-1.6-1.6Z"/><path class="cls-7" d="M161.93,164.61a1.27,1.27,0,0,1,.28,0,1.16,1.16,0,1,0,1.29,1.28,2.83,2.83,0,0,1,0,.29,1.6,1.6,0,0,1-3.19,0A1.6,1.6,0,0,1,161.93,164.61Z"/><path class="cls-7" d="M172.81,164a1.27,1.27,0,0,1,.28,0,1.15,1.15,0,0,0-1,1.14,1.16,1.16,0,0,0,2.31.14,2.66,2.66,0,0,1,0,.28,1.6,1.6,0,1,1-3.19,0A1.59,1.59,0,0,1,172.81,164Z"/><path class="cls-7" d="M159.78,220.17a1.33,1.33,0,0,1,.28,0,1.16,1.16,0,1,0,1.28,1.28,1.43,1.43,0,0,1,0,.29,1.6,1.6,0,1,1-1.59-1.6Z"/><path class="cls-7" d="M170.66,219.6a1.33,1.33,0,0,1,.28,0,1.15,1.15,0,0,0-1,1.14,1.18,1.18,0,0,0,1.17,1.17,1.15,1.15,0,0,0,1.14-1,1.33,1.33,0,0,1,0,.28,1.6,1.6,0,1,1-1.59-1.59Z"/><path class="cls-7" d="M158.18,267.2a2.4,2.4,0,0,1,.28,0,1.16,1.16,0,1,0,1.29,1.29,2.4,2.4,0,0,1,0,.28,1.6,1.6,0,1,1-1.6-1.6Z"/><path class="cls-7" d="M169.06,266.63a1.27,1.27,0,0,1,.28,0,1.15,1.15,0,0,0-1,1.14,1.16,1.16,0,0,0,2.31.14,2.58,2.58,0,0,1,0,.29,1.6,1.6,0,1,1-1.6-1.6Z"/><path class="cls-7" d="M151.53,164.87a1.27,1.27,0,0,1,.28,0,1.16,1.16,0,1,0,1.29,1.28,2.85,2.85,0,0,1,0,.29,1.6,1.6,0,1,1-1.6-1.6Z"/><path class="cls-7" d="M140.9,164.87a1.33,1.33,0,0,1,.28,0,1.16,1.16,0,0,0-1,1.14,1.17,1.17,0,0,0,1.17,1.17,1.15,1.15,0,0,0,1.14-1,1.43,1.43,0,0,1,0,.29,1.6,1.6,0,0,1-3.19,0A1.6,1.6,0,0,1,140.9,164.87Z"/><path class="cls-7" d="M130.26,164.87a1.43,1.43,0,0,1,.29,0,1.16,1.16,0,1,0,1.28,1.28,1.43,1.43,0,0,1,0,.29,1.6,1.6,0,1,1-1.6-1.6Z"/><path class="cls-7" d="M198.32,215.21l7.09,9.11a30.54,30.54,0,0,1,5.15,11,40,40,0,0,1,.34,14.81c-2.53,21.63-3.32,39.31-3.32,39.31s3.32-17.39,5.86-39a37.57,37.57,0,0,0-.8-15.66,29.57,29.57,0,0,0-6.24-11.18c-2.41-2.67-4.49-4.67-5.89-6.11Z"/><circle class="cls-7" cx="284.11" cy="442.34" r="15.53" transform="translate(-229.56 330.46) rotate(-45)"/><path class="cls-9" d="M293,434.24a13.43,13.43,0,0,0-2.75-2.39,14,14,0,0,0-3.37-1.51,14.46,14.46,0,0,0-3.7-.49,14.08,14.08,0,0,0-3.7.59,13.1,13.1,0,0,0-6.15,4.12,12.86,12.86,0,0,0-2.85,6.72l.16,0a13.61,13.61,0,0,1,3.31-6.19,13.54,13.54,0,0,1,12.74-4,14.9,14.9,0,0,1,3.34,1.17A15.78,15.78,0,0,1,293,434.24Z"/><circle class="cls-7" cx="236.93" cy="418.94" r="17.79"/><path class="cls-9" d="M249.21,408.38a15.21,15.21,0,0,0-7-5.63,15,15,0,0,0-4.44-1,16.29,16.29,0,0,0-4.56.36,15.05,15.05,0,0,0-11.53,12.71l.09,0a15.41,15.41,0,0,1,11.58-12.15,15.36,15.36,0,0,1,8.7.51A15.6,15.6,0,0,1,249.21,408.38Z"/><path class="cls-9" d="M240.53,404.53a12.63,12.63,0,0,0-4.15-.58,13.11,13.11,0,0,0-4.15.8,14.63,14.63,0,0,0-1.93.88,15.08,15.08,0,0,0-1.76,1.19,12.8,12.8,0,0,0-2.8,3.12l.07.06a16.25,16.25,0,0,1,3-2.78,15.55,15.55,0,0,1,3.6-1.91,16,16,0,0,1,8.09-.78Z"/><path class="cls-9" d="M228.72,429.12a8.38,8.38,0,0,0-4.19-1.77,8.62,8.62,0,0,0-4.61.67,9.87,9.87,0,0,0-2,1.22,9.31,9.31,0,0,0-1.61,1.71,8.45,8.45,0,0,0-1.55,4.31l.16,0a10.07,10.07,0,0,1,2-3.82,9.89,9.89,0,0,1,3.39-2.53,9.62,9.62,0,0,1,4.14-.83A10.19,10.19,0,0,1,228.72,429.12Z"/><circle class="cls-7" cx="-4.14" cy="454.19" r="33.65"/><path class="cls-9" d="M-22.56,430.28a32,32,0,0,1,15-5.55,31.86,31.86,0,0,1,16,2.54,35.41,35.41,0,0,1,7,4.21,33.22,33.22,0,0,1,5.69,5.86,32,32,0,0,1,6.05,14.88l-.24,0a33.62,33.62,0,0,0-6.81-14.14,33.64,33.64,0,0,0-12.33-9.44,32.6,32.6,0,0,0-7.47-2.29,31,31,0,0,0-7.81-.52A33.91,33.91,0,0,0-22.56,430.28Z"/><path class="cls-9" d="M-10.88,431.21a25.67,25.67,0,0,1,11-.35,26.36,26.36,0,0,1,10.25,4.3,26.16,26.16,0,0,1,7.58,8.13,26.49,26.49,0,0,1,3.5,10.43l-.25,0A29.41,29.41,0,0,0,16.85,444a29,29,0,0,0-7.4-7.55A29.43,29.43,0,0,0-.16,432,30.33,30.33,0,0,0-10.88,431.21Z"/><path class="cls-9" d="M-10.84,436.82a18.91,18.91,0,0,1,6.37-.8,19.08,19.08,0,0,1,6.35,1.38,19.22,19.22,0,0,1,9.66,8.36l-.2.14a28.37,28.37,0,0,0-4.67-4.12,28.31,28.31,0,0,0-5.36-2.95,28.4,28.4,0,0,0-5.9-1.66A29.51,29.51,0,0,0-10.84,436.82Z"/><circle class="cls-8" cx="22.35" cy="376.44" r="42.01" transform="translate(-3.14 0.2) rotate(-0.48)"/><circle class="cls-7" cx="19.49" cy="379.25" r="42.87" transform="translate(-339.67 255.92) rotate(-68.11)"/><circle class="cls-7" cx="34.77" cy="401.57" r="26.72"/><path class="cls-9" d="M22.94,423.7a18.58,18.58,0,0,0-.46-5,19,19,0,0,0-2-4.7A16.7,16.7,0,0,0,17.24,410,17.54,17.54,0,0,0,13,407.17,17,17,0,0,0,8,405.7a15.71,15.71,0,0,0-5.12,0A17.64,17.64,0,0,0-2,407.14,17.08,17.08,0,0,0-6.13,410,19,19,0,0,1,3,406.44a17.73,17.73,0,0,1,4.88.17,16.41,16.41,0,0,1,4.64,1.47,17.72,17.72,0,0,1,7.31,6.31A18.8,18.8,0,0,1,22.94,423.7Z"/><path class="cls-9" d="M18,419a12.1,12.1,0,0,0-4.21-6.34A12,12,0,0,0,6.65,410a21.63,21.63,0,0,1,6.47,3.5A21.59,21.59,0,0,1,18,419Z"/><path class="cls-9" d="M57.65,387.15A37.64,37.64,0,0,0,34,342.46a38.15,38.15,0,0,0-27.19.48,37.29,37.29,0,0,0-19.68,18.5,38.06,38.06,0,0,1,33.24-20.32,37.91,37.91,0,0,1,24.93,9.09,38,38,0,0,1,12.36,36.94Z"/><path class="cls-9" d="M53.15,386.62a31.52,31.52,0,0,0,1-12.27,33.4,33.4,0,0,0-3.7-11.83,33.27,33.27,0,0,0-7.85-9.6A31.43,31.43,0,0,0,31.8,347a36.84,36.84,0,0,1,10.29,6.5,35.19,35.19,0,0,1,11.29,20.94A37.13,37.13,0,0,1,53.15,386.62Z"/><path class="cls-9" d="M48.74,377.6a24.72,24.72,0,0,0-.94-7,26.9,26.9,0,0,0-7.27-12.15,24.46,24.46,0,0,0-5.76-4.15A38.19,38.19,0,0,1,40,359a34.58,34.58,0,0,1,7.09,11.84A39.64,39.64,0,0,1,48.74,377.6Z"/><circle class="cls-7" cx="-39.6" cy="387.85" r="42.87" transform="translate(-285.85 85.6) rotate(-45)"/><path class="cls-9" d="M58.58,406.63a24.8,24.8,0,0,0-.65-9.15,25.29,25.29,0,0,0-37.38-15.16,25.65,25.65,0,0,0-6.93,6.11,24.74,24.74,0,0,0-4.18,8.17A25.78,25.78,0,0,1,21,383a25.21,25.21,0,0,1,32.37,6.6A25.77,25.77,0,0,1,58.58,406.63Z"/><path class="cls-9" d="M54.06,400.15A17.9,17.9,0,0,0,41.75,385.3a26.67,26.67,0,0,1,12.31,14.85Z"/></g><polygon class="cls-6" points="275.85 220.63 281.91 221.1 277.27 217.17 279.58 211.54 274.41 214.74 269.78 210.8 271.23 216.71 266.04 219.9 272.11 220.35 273.54 226.26 275.85 220.63"/><polygon class="cls-6" points="283.34 179.66 291.71 183.33 287.07 175.45 293.15 168.62 284.23 170.6 279.61 162.71 278.73 171.81 269.79 173.76 278.18 177.41 277.28 186.51 283.34 179.66"/></svg>