<svg xmlns="http://www.w3.org/2000/svg" xmlns:xlink="http://www.w3.org/1999/xlink" viewBox="0 0 1916.56 1079.49"><defs><style>.cls-1{fill:none;}.cls-2{fill:#104352;}.cls-3{clip-path:url(#clip-path);}.cls-4{opacity:0.15;fill:url(#radial-gradient);}.cls-5{opacity:0.05;fill:url(#radial-gradient-2);}.cls-6{fill:#e09151;}.cls-7{fill:#f7f0e8;}.cls-8{fill:#fff;}.cls-9{fill:#e06451;}.cls-10{fill:#b2cdd6;}.cls-11{fill:#f7ecca;}.cls-12{fill:#f2af8a;}</style><clipPath id="clip-path"><rect class="cls-1" width="1916.56" height="1368.78"/></clipPath><radialGradient id="radial-gradient" cx="1570.24" cy="1177.49" r="1731.93" gradientTransform="scale(0.99 1)" gradientUnits="userSpaceOnUse"><stop offset="0" stop-color="#b2cdd6"/><stop offset="0.14" stop-color="#94b3bd"/><stop offset="0.43" stop-color="#5c8390"/><stop offset="0.68" stop-color="#32606e"/><stop offset="0.88" stop-color="#194b5a"/><stop offset="1" stop-color="#104352"/></radialGradient><radialGradient id="radial-gradient-2" cx="-26.72" cy="5.54" r="887.15" xlink:href="#radial-gradient"/></defs><title>Artboard 2</title><g id="Layer_3" data-name="Layer 3"><rect class="cls-2" width="1916.56" height="1368.78"/></g><g id="Layer_1" data-name="Layer 1"><g class="cls-3"><path class="cls-4" d="M2412.76-1346.95,1558.1,1177.49l512.31-2616.88ZM2725-1216.6,1558.1,1177.49,3032-1038ZM3300.1-830.65l-1742,2008.14L3550.71-578.08Zm456.36,522.8L1558.1,1177.49,3933.68,1.49Zm306.56,624L1558.1,1177.49,4154.75,661.2ZM4198.87,998.9,1558.1,1177.49l2640.77,178.6Zm-44.12,694.89L1558.1,1177.49,4063,2038.81ZM3933.68,2353.5l-2375.58-1176L3756.46,2662.84Zm-383,579.56L1558.1,1177.49l1742,2008.15ZM3032,3393,1558.1,1177.49,2725,3571.59Zm-619.2,308.94L1558.1,1177.49l512.31,2616.89Zm-677.44,136.91L1558.1,1177.49,1380.89,3838.84Zm-689.52-44.46,512.3-2616.89L703.44,3701.93ZM391.19,3571.59,1558.1,1177.49,84.25,3393Zm-575.08-386,1742-2008.15L-434.51,2933.06Zm-456.37-522.8L1558.1,1177.49l-2375.58,1176Zm-306.56-624L1558.1,1177.49l-2596.65,516.3Zm-135.85-682.72,2640.77-178.6L-1082.67,998.9Zm44.12-694.89L1558.1,1177.49-946.82,316.18ZM-817.48,1.49l2375.58,1176L-640.26-307.85Zm383-579.57L1558.1,1177.49l-1742-2008.14ZM84.25-1038,1558.1,1177.49,391.19-1216.6Zm619.19-309L1558.1,1177.49,1045.8-1439.39Zm677.45-136.9L1558.1,1177.49l177.22-2661.34Z"/><path class="cls-5" d="M411.27-1287.56-26.51,5.54,235.91-1334.92Zm160,66.77L-26.51,5.54l755-1134.85ZM865.8-1023.1-26.51,5.54,994.17-893.72Zm233.77,267.8L-26.51,5.54,1190.34-596.85Zm157,319.65L-26.51,5.54,1303.58-258.92Zm69.59,349.71L-26.51,5.54,1326.18,97Zm-22.6,356L-26.51,5.54l1283.1,441.2ZM1190.34,607.93-26.51,5.54,1099.57,766.39ZM994.17,904.81-26.51,5.54,865.8,1034.18ZM728.45,1140.4-26.51,5.54,571.22,1231.88ZM411.27,1298.65-26.51,5.54,235.91,1346Zm-347,70.13L-26.51,5.54l-90.78,1363.24ZM-288.93,1346-26.51,5.54-464.3,1298.65Zm-335.31-114.12L-26.51,5.54l-755,1134.86Zm-294.58-197.7L-26.51,5.54-1047.2,904.81Zm-233.77-267.79L-26.51,5.54-1243.36,607.93Zm-157-319.65L-26.51,5.54-1356.6,270ZM-1379.2,97-26.51,5.54-1379.2-85.94Zm22.6-355.94L-26.51,5.54-1309.62-435.65Zm113.24-337.93L-26.51,5.54-1152.59-755.3Zm196.16-296.87L-26.51,5.54-918.82-1023.1Zm265.73-235.59L-26.51,5.54-624.24-1220.79Zm317.17-158.25L-26.51,5.54-288.93-1334.92Zm347-70.13L-26.51,5.54,64.26-1357.69Z"/><polygon class="cls-6" points="219.55 1050.72 156.03 900.86 1128.83 499.95 1180.3 623.66 219.55 1050.72"/><ellipse class="cls-6" cx="260.57" cy="682.5" rx="67.14" ry="67.66"/><ellipse class="cls-6" cx="236.16" cy="768.61" rx="51.5" ry="51.91"/><ellipse class="cls-6" cx="294.42" cy="846.36" rx="62.22" ry="62.71"/><ellipse class="cls-6" cx="212.19" cy="847.37" rx="53.22" ry="53.64"/><ellipse class="cls-6" cx="249.36" cy="925.9" rx="68.06" ry="68.59"/><ellipse class="cls-6" cx="356.54" cy="952.06" rx="72.43" ry="73"/><ellipse class="cls-6" cx="333.97" cy="1032.12" rx="72.43" ry="73"/><ellipse class="cls-6" cx="233.81" cy="1036.72" rx="69.84" ry="70.38"/><ellipse class="cls-6" cx="407.81" cy="1035.96" rx="39.7" ry="40.01"/><ellipse class="cls-6" cx="447.67" cy="1122.71" rx="79" ry="79.62"/><ellipse class="cls-6" cx="310.36" cy="605.82" rx="40.56" ry="40.87"/><ellipse class="cls-6" cx="213.32" cy="524.03" rx="40.56" ry="40.87"/><ellipse class="cls-6" cx="137.26" cy="517.78" rx="72.39" ry="72.95"/><ellipse class="cls-6" cx="27.99" cy="491.64" rx="72.39" ry="72.95"/><path class="cls-6" d="M623.94,1131.57a31.37,31.37,0,0,1-41.29-16.72,31.8,31.8,0,0,1,16.6-41.61A31.37,31.37,0,0,1,640.54,1090,31.8,31.8,0,0,1,623.94,1131.57Z"/><path class="cls-6" d="M328.91,769a13,13,0,0,1-17.13-6.94,13.2,13.2,0,0,1,6.89-17.26,13,13,0,0,1,17.12,6.94A13.19,13.19,0,0,1,328.91,769Z"/><path class="cls-6" d="M284.44,441.93A13,13,0,0,1,267.32,435a13.19,13.19,0,0,1,6.88-17.26,13,13,0,0,1,17.13,6.94A13.19,13.19,0,0,1,284.44,441.93Z"/><path class="cls-6" d="M338.54,679.37a23.52,23.52,0,0,1-31-12.54A23.84,23.84,0,0,1,320,635.64a23.52,23.52,0,0,1,31,12.54A23.83,23.83,0,0,1,338.54,679.37Z"/><ellipse class="cls-6" cx="297.03" cy="504.98" rx="23.59" ry="23.77"/><path class="cls-6" d="M546,1119.24a23.53,23.53,0,0,1-31-12.54,23.84,23.84,0,0,1,12.44-31.19,23.53,23.53,0,0,1,31,12.54A23.84,23.84,0,0,1,546,1119.24Z"/><path class="cls-6" d="M403.64,573.79a13.62,13.62,0,0,1-17.92-7.26,13.81,13.81,0,0,1,7.21-18.06,13.62,13.62,0,0,1,17.92,7.26A13.8,13.8,0,0,1,403.64,573.79Z"/><path class="cls-6" d="M374.67,512.89a5.67,5.67,0,0,1-7.46-3,5.74,5.74,0,0,1,3-7.51,5.66,5.66,0,0,1,7.45,3A5.74,5.74,0,0,1,374.67,512.89Z"/><path class="cls-6" d="M469.64,1024.84a5.67,5.67,0,0,1-7.46-3,5.74,5.74,0,0,1,3-7.51,5.66,5.66,0,0,1,7.45,3A5.74,5.74,0,0,1,469.64,1024.84Z"/><ellipse class="cls-7" cx="51.77" cy="495.63" rx="43.33" ry="43.67"/><path class="cls-7" d="M529.57,1409.51c-1.55,0-3.11,0-4.67-.12-37.24-1.8-70.07-25.65-84.17-59.65a122.26,122.26,0,0,1-45,8.55,125.28,125.28,0,0,1-114.17-174.82,78.13,78.13,0,0,1-16.45-9.85,70,70,0,0,1-42.46,14.44,70.89,70.89,0,0,1-53.72-25,117.74,117.74,0,0,1-44.06,8.53,119.53,119.53,0,0,1-110.16-73.24A121,121,0,0,1,26.11,982.92a97.42,97.42,0,0,1,11.8-131.41,97.27,97.27,0,0,1-17.1-101.79A111,111,0,0,1-30,694.3a112.36,112.36,0,0,1,6-100.23,110.56,110.56,0,0,1,79.07-54.92,84.38,84.38,0,0,1,106.14-4.25A92.58,92.58,0,0,1,211,520.34a93.42,93.42,0,0,1,86.09,57.24c20.23,47.77-1.89,103.23-49.3,123.61a92.29,92.29,0,0,1-26.49,7,75.9,75.9,0,0,1-24.83,37.39c.51,1.09,1,2.2,1.48,3.31A97.13,97.13,0,0,1,173.77,859a97.09,97.09,0,0,1,20,93.65,119.14,119.14,0,0,1,40.94,51.07,121.3,121.3,0,0,1,9.55,45.87,70.44,70.44,0,0,1,13.13,5.84,78.23,78.23,0,0,1,25-17.11,77.38,77.38,0,0,1,30.71-6.35,78.92,78.92,0,0,1,78.52,75.89c1.34,0,2.67-.06,4-.06a124.31,124.31,0,0,1,50.09,10.63,86.74,86.74,0,0,1,11.84-6.22,85.58,85.58,0,0,1,33.94-7,86.5,86.5,0,0,1,79.68,53,88,88,0,0,1,.46,67.29,96.55,96.55,0,0,1,46.24,48.88c.8,0,1.61-.05,2.42-.05a61.69,61.69,0,0,1,45.27,19.89,62.71,62.71,0,0,1-3.3,88,61.43,61.43,0,0,1-74.43,7.36A95.09,95.09,0,0,1,529.57,1409.51Z"/><path class="cls-2" d="M-8.18,1373.84c-3.89-6.08-5.91-356.88-5.91-356.88s567.43,352.83,563.4,351.82,6,76,2,75-565.41-38.52-565.41-38.52Z"/><ellipse class="cls-2" cx="34.24" cy="612.89" rx="99.49" ry="100.27"/><ellipse class="cls-2" cx="149.74" cy="683.31" rx="63.58" ry="64.08"/><path class="cls-7" d="M191.84,919.54c221.36-94.08,917.21-390.16,947.56-403.11l-3.43-8.11c-30.25,13.1-722.15,314-943.56,410.28C192.2,918.92,192.06,919.22,191.84,919.54Z"/><path class="cls-7" d="M190.9,906.43c193-84.4,539.63-236.18,539.63-236.18S388.58,815.6,194.3,897.71A28.2,28.2,0,0,1,190.9,906.43Z"/><path class="cls-7" d="M1134.88,540.71l-3.43-8.11C1115,539.79,685.51,729.12,685.51,729.12S1118.34,547.7,1134.88,540.71Z"/><path class="cls-7" d="M195.87,959.14c172.27-75.41,509.9-223.27,509.9-223.27L189.56,953.74Z"/><path class="cls-7" d="M1159.4,598.63l-3.43-8.11c-30.67,13.31-831.74,362.4-831.74,362.4S1128.65,611.74,1159.4,598.63Z"/><path class="cls-7" d="M1098.69,592.5l-3.44-8.11L391.46,891.77Z"/><path class="cls-7" d="M233.53,1012.89C450.41,918.3,871.14,735.64,882.78,730.5c-11.69,4.85-429.86,181.69-648.37,274.28A16.4,16.4,0,0,1,233.53,1012.89Z"/><path class="cls-7" d="M223.72,985.52C368.34,921.93,602,819.73,602,819.73S362.4,920.49,216.45,981.82A22.94,22.94,0,0,1,223.72,985.52Z"/><path class="cls-7" d="M1171.82,620.13l-3.44-8.11c-13,5.7-356.81,160-356.81,160Z"/><path class="cls-7" d="M239.19,1033c224.65-98,673.4-294.39,673.4-294.39S467.69,928.35,241,1024.44A19.35,19.35,0,0,1,239.19,1033Z"/><path class="cls-2" d="M66.09,529.46a36.39,36.39,0,0,1-47.88-19.4A36.89,36.89,0,0,1,37.45,461.8a36.41,36.41,0,0,1,47.89,19.4A36.89,36.89,0,0,1,66.09,529.46Z"/><path class="cls-2" d="M163.73,507.61a17.18,17.18,0,0,1-22.62-9.15,17.42,17.42,0,0,1,9.09-22.79,17.17,17.17,0,0,1,22.61,9.15A17.41,17.41,0,0,1,163.73,507.61Z"/><path class="cls-2" d="M259.3,499a10.25,10.25,0,0,1-13.49-5.46,10.39,10.39,0,0,1,5.42-13.6,10.25,10.25,0,0,1,13.49,5.46A10.39,10.39,0,0,1,259.3,499Z"/><path class="cls-6" d="M106.89,428.58a15.42,15.42,0,0,1-20.28-8.21,15.62,15.62,0,0,1,8.15-20.44A15.42,15.42,0,0,1,115,408.14,15.63,15.63,0,0,1,106.89,428.58Z"/><ellipse class="cls-2" cx="54.37" cy="791.49" rx="26.37" ry="26.58"/><ellipse class="cls-2" cx="110.36" cy="783.9" rx="84.05" ry="84.71"/><path class="cls-8" d="M111,706.7a75.28,75.28,0,0,1,45.85,14.22,78.88,78.88,0,0,1,28.39,39.46c4.7,15.83,4.81,33.17-.8,48.74A75.6,75.6,0,0,1,155,847.28a79.85,79.85,0,0,0,27.5-38.83,77.78,77.78,0,0,0,3.79-23.63,80.81,80.81,0,0,0-3.58-23.63,78.13,78.13,0,0,0-27.07-38.61A79.5,79.5,0,0,0,111,706.7Z"/><path class="cls-8" d="M167.28,748.24a60.78,60.78,0,0,1,6.31,11,66.05,66.05,0,0,1,3.89,12.19,64.46,64.46,0,0,1,.19,25.59,63.28,63.28,0,0,1-9.81,23.61,67.42,67.42,0,0,1-8.17,9.8,64.82,64.82,0,0,1-10,7.79,74.46,74.46,0,0,0,16.42-18.71,69.42,69.42,0,0,0,8.92-23,70.66,70.66,0,0,0,.41-24.7A73.49,73.49,0,0,0,167.28,748.24Z"/><path class="cls-2" d="M137.07,643.72c-17.62-41.61,1.64-89.9,42.93-107.65s89.21,1.66,106.82,43.27-1.65,89.9-42.93,107.65S154.68,685.33,137.07,643.72Z"/><path class="cls-8" d="M232.11,547.22A67.25,67.25,0,0,1,269,569.31a70.81,70.81,0,0,1,16.35,40.38c.72,14.76-2.86,29.86-11,42.15a66.94,66.94,0,0,1-33.68,26.73,71.21,71.21,0,0,0,31.95-27.83,69.51,69.51,0,0,0,8.25-19.66,72.5,72.5,0,0,0,1.87-21.22,70.07,70.07,0,0,0-15.27-39.23A71.42,71.42,0,0,0,232.11,547.22Z"/><path class="cls-8" d="M261.44,581.33a54.71,54.71,0,0,1,6.95,11.09,58.36,58.36,0,0,1,4,12.57,56.11,56.11,0,0,1-14.32,49.25,53.72,53.72,0,0,1-21.92,14,64.09,64.09,0,0,0,11-6.67,56,56,0,0,0,9.38-8.69,59.53,59.53,0,0,0,13.82-47.5A62.25,62.25,0,0,0,261.44,581.33Z"/><path class="cls-2" d="M252.91,1134.35c-14.37-34,1.35-73.36,35-87.85a66.31,66.31,0,0,1,87.16,35.31c14.37,34-1.34,73.36-35,87.84A66.31,66.31,0,0,1,252.91,1134.35Z"/><path class="cls-8" d="M280.2,1060.15a55.39,55.39,0,0,1,37.08-11.87,56.51,56.51,0,0,1,42.51,89.51l-.35-.25a57.11,57.11,0,0,0-7.93-71.52,56.13,56.13,0,0,0-71.31-5.87Z"/><path class="cls-8" d="M284.58,1066.9a44.67,44.67,0,0,1,39-9.34,43.72,43.72,0,0,1,18.63,9.16,45.54,45.54,0,0,1,12.53,16.37l-.38.2a55.75,55.75,0,0,0-6-8.17,38.58,38.58,0,0,0-3.6-3.52,40.42,40.42,0,0,0-3.88-3.15,49,49,0,0,0-37.6-8.85A51.49,51.49,0,0,0,284.58,1066.9Z"/><path class="cls-2" d="M25.64,953.85C7.45,910.88,27.34,861,70,842.67s92.13,1.71,110.32,44.68S178.6,980.2,136,998.54,43.83,996.82,25.64,953.85Z"/><path class="cls-8" d="M124.52,852.12A66.32,66.32,0,0,1,171.17,887a71.32,71.32,0,0,1,6.45,19.21A68.67,68.67,0,0,1,172.53,946,67.76,67.76,0,0,1,146,975.43l-.23-.36A68.54,68.54,0,0,0,175,906.66a68.39,68.39,0,0,0-50.49-54.54Z"/><path class="cls-8" d="M155.12,880.83a56.6,56.6,0,0,1,9.51,15.92,58.66,58.66,0,0,1,4,18.33,63,63,0,0,1-.23,9.42,61.18,61.18,0,0,1-1.79,9.23,57.45,57.45,0,0,1-7.78,16.89l-.37-.22a73.32,73.32,0,0,0,6-17.2,70.2,70.2,0,0,0,1.49-18,71.51,71.51,0,0,0-3.18-17.78A72.23,72.23,0,0,0,155.12,880.83Z"/><path class="cls-2" d="M26.64,1090.54c-23.26-55,2.18-118.75,56.72-142.2s117.83,2.19,141.1,57.15-2.17,118.76-56.71,142.21S49.91,1145.51,26.64,1090.54Z"/><path class="cls-8" d="M177.49,967.5a84.94,84.94,0,0,1,45.86,70,86.27,86.27,0,0,1-3.14,28.86l-.42-.1a95,95,0,0,0,1.4-28.58,93.49,93.49,0,0,0-7.11-27.49,94.72,94.72,0,0,0-15-24.11A93.73,93.73,0,0,0,177.49,967.5Z"/><path class="cls-8" d="M198.25,998.4a45.2,45.2,0,0,1,5.52,6.66,46.45,46.45,0,0,1,4.25,7.57,48.31,48.31,0,0,1,4.35,16.75l-.41.09c-1.05-2.69-2-5.36-3.08-8s-2.13-5.2-3.27-7.77-2.36-5.1-3.55-7.66S199.53,1001,198.25,998.4Z"/><path class="cls-2" d="M169.65,1137.13c-12.63-29.84,1.18-64.48,30.79-77.21a58.29,58.29,0,0,1,76.62,31c12.63,29.84-1.18,64.48-30.79,77.21A58.29,58.29,0,0,1,169.65,1137.13Z"/><path class="cls-8" d="M190.56,1073.64a51.63,51.63,0,0,1,34.61-11.07,52.73,52.73,0,0,1,39.66,83.52l-.32-.23a53.35,53.35,0,0,0,8.11-34.91,52.79,52.79,0,0,0-15.51-31.83,52.38,52.38,0,0,0-66.55-5.48Z"/><path class="cls-8" d="M213.6,1073.25a39.35,39.35,0,0,1,13.4-.69,40.41,40.41,0,0,1,24,12,39.25,39.25,0,0,1,7.63,11.16l-.35.19a50.82,50.82,0,0,0-31.58-21.47A54.83,54.83,0,0,0,213.6,1073.25Z"/><path class="cls-2" d="M-21.77,829.46a51.81,51.81,0,0,1,70.58-20.6A52.63,52.63,0,0,1,69.24,880a51.8,51.8,0,0,1-70.57,20.6A52.62,52.62,0,0,1-21.77,829.46Z"/><path class="cls-8" d="M33.85,809.41a46.22,46.22,0,0,1,26.67,18.37,46.8,46.8,0,0,1,8.19,31.87,46.92,46.92,0,0,1-14.57,29.49A46,46,0,0,1,24.2,901.6l0-.36a47,47,0,0,0,42.35-41.83,47.25,47.25,0,0,0-32.68-50Z"/><path class="cls-8" d="M46.75,825.47a35.59,35.59,0,0,1,7.83,9.08,36.56,36.56,0,0,1,4.84,23.5,34.78,34.78,0,0,1-3.58,11.51l-.32-.14a47.35,47.35,0,0,0,2.1-11.54,48,48,0,0,0-.79-11.55,47.67,47.67,0,0,0-3.7-11A49.28,49.28,0,0,0,46.75,825.47Z"/><path class="cls-8" d="M179.7,635.25a55.16,55.16,0,0,1,25.67,47.36,61.59,61.59,0,0,1-1.92,14,57.75,57.75,0,0,1-5.42,13,54.94,54.94,0,0,1-19.44,19.75l-.23-.36a58.12,58.12,0,0,0,17.77-20.45,58.9,58.9,0,0,0,6.6-26.06,58,58,0,0,0-1.41-13.45,54.17,54.17,0,0,0-4.46-12.8A58.4,58.4,0,0,0,179.7,635.25Z"/><path class="cls-8" d="M186.12,654.49a44.72,44.72,0,0,1,7.94,17.24,45.87,45.87,0,0,1,.12,19.24,45.15,45.15,0,0,1-21.88,30.27l-.23-.36a51.51,51.51,0,0,0,19.53-30.46,52,52,0,0,0,.51-18.32A53,53,0,0,0,186.12,654.49Z"/><path class="cls-8" d="M177.26,658.36a32.62,32.62,0,0,1,5.57,9.6,33.09,33.09,0,0,1,2.1,11.07,33.53,33.53,0,0,1-6.69,21.06l-.37-.22a48.58,48.58,0,0,0,4.42-20.79,49.58,49.58,0,0,0-1.36-10.53A50.58,50.58,0,0,0,177.26,658.36Z"/><path class="cls-8" d="M66.13,468.85a30.76,30.76,0,0,1,11.43,11.6,32,32,0,0,1,4.14,16.11,36.78,36.78,0,0,1-1.16,8.35,33.92,33.92,0,0,1-3.29,7.71A31.06,31.06,0,0,1,65.53,524l-.23-.36a35.54,35.54,0,0,0,10-12.11,35.18,35.18,0,0,0,3.71-15,34.81,34.81,0,0,0-3.25-15.16A35.79,35.79,0,0,0,66.13,468.85Z"/><path class="cls-2" d="M26.75,436A23.41,23.41,0,0,1-4,423.54,23.73,23.73,0,0,1,8.33,392.49,23.41,23.41,0,0,1,39.13,405,23.73,23.73,0,0,1,26.75,436Z"/><path class="cls-8" d="M27.05,397.13a18.27,18.27,0,0,1,7.4,7,19.23,19.23,0,0,1,2.72,10.13,19.62,19.62,0,0,1-2.89,10.11,18.51,18.51,0,0,1-7.55,6.91l-.23-.36a23.15,23.15,0,0,0,5.88-7.61A21.89,21.89,0,0,0,32.69,405,23.44,23.44,0,0,0,27.05,397.13Z"/><ellipse class="cls-2" cx="111.61" cy="600.74" rx="72.84" ry="73.41"/><path class="cls-8" d="M137.26,544.64a61.8,61.8,0,0,1,14.67,7.71A67.54,67.54,0,0,1,164,563.94a67.61,67.61,0,0,1,8.39,14.63A61.22,61.22,0,0,1,175.71,612a62.23,62.23,0,0,1-5.32,16A59.58,59.58,0,0,1,148,652.34l-.23-.36A61.68,61.68,0,0,0,168.43,627a62.73,62.73,0,0,0,5.32-31.75,65.53,65.53,0,0,0-3.68-15.8,67.75,67.75,0,0,0-7.65-14.35,66.21,66.21,0,0,0-11.16-11.9A72.87,72.87,0,0,0,137.26,544.64Z"/><path class="cls-8" d="M153,567.67a47.22,47.22,0,0,1,10.83,18.14,47.58,47.58,0,0,1-21.3,55.82l-.24-.36A51.72,51.72,0,0,0,156.1,626a51.91,51.91,0,0,0,5.77-39.64A54.48,54.48,0,0,0,153,567.67Z"/><path class="cls-2" d="M68.84,734.87c-28.7,12.33-66.43-3.2-78.67-32.11s5.64-60.27,34.34-72.61a56.32,56.32,0,0,1,74.11,30A57.09,57.09,0,0,1,68.84,734.87Z"/><path class="cls-8" d="M59.77,634a52.89,52.89,0,0,1,12.83,6.66,58.34,58.34,0,0,1,10.58,10.08,59.14,59.14,0,0,1,7.36,12.77,53.32,53.32,0,0,1,2.91,29.18,54.22,54.22,0,0,1-4.67,14,51.92,51.92,0,0,1-19.66,21.18l-.23-.36A53.89,53.89,0,0,0,86.82,705.7a55,55,0,0,0,4.59-27.6,57.45,57.45,0,0,0-3.19-13.73,58.33,58.33,0,0,0-6.62-12.48,57,57,0,0,0-9.67-10.39A64.06,64.06,0,0,0,59.77,634Z"/><path class="cls-8" d="M73.15,655.8a40.17,40.17,0,0,1,9,15.61,41.41,41.41,0,0,1-5.48,35.25,39.85,39.85,0,0,1-13.3,12.16l-.23-.36a46.88,46.88,0,0,0,11.71-13,45.43,45.43,0,0,0,5.38-33.54A47.6,47.6,0,0,0,73.15,655.8Z"/><path class="cls-2" d="M28.27,628.18A40.51,40.51,0,0,1-25,606.59,41.07,41.07,0,0,1-3.61,552.86a40.52,40.52,0,0,1,53.31,21.6A41.07,41.07,0,0,1,28.27,628.18Z"/><path class="cls-8" d="M22.65,560.48a35.24,35.24,0,0,1,8.58,4.21,37.15,37.15,0,0,1,7.11,6.62,38.75,38.75,0,0,1,5,8.46,37.12,37.12,0,0,1,2.36,9.58,34.72,34.72,0,0,1-3.58,19.19,33.87,33.87,0,0,1-13.24,13.85l-.24-.36a35.94,35.94,0,0,0,11.52-14.44,35.94,35.94,0,0,0-3.37-35.08,39.46,39.46,0,0,0-6.24-6.88A42.18,42.18,0,0,0,22.65,560.48Z"/><path class="cls-2" d="M-49.76,760.94c10.67-35.31,47.85-55.3,82.9-44.55S88,764.61,77.34,799.93s-47.85,55.3-82.89,44.55S-60.42,796.26-49.76,760.94Z"/><path class="cls-8" d="M18.49,721.82a55.42,55.42,0,0,1,36,15,56.83,56.83,0,0,1,12,16.11A57.17,57.17,0,0,1,72,772.27a56.72,56.72,0,0,1-9.89,38.4,55.71,55.71,0,0,1-32.21,22.19l-.11-.42a56.33,56.33,0,0,0,30.53-23,56.81,56.81,0,0,0,9-36.89,56.69,56.69,0,0,0-50.86-50.72Z"/><path class="cls-8" d="M17.54,729.83A44.75,44.75,0,0,1,53.34,748a47.85,47.85,0,0,1,5.36,9,48.1,48.1,0,0,1,3.07,10,46,46,0,0,1-.86,20.66l-.42-.09a55.87,55.87,0,0,0,.62-10.15,38.29,38.29,0,0,0-.51-5,39,39,0,0,0-1-4.93,48.6,48.6,0,0,0-8.41-18A48.78,48.78,0,0,0,36.5,736.34,51.44,51.44,0,0,0,17.54,729.83Z"/><ellipse class="cls-2" cx="12.33" cy="989.63" rx="112.17" ry="113.05"/><path class="cls-8" d="M89.19,1057.16A100.63,100.63,0,0,0,108.88,1027a101.47,101.47,0,0,0,7.53-35.53,101,101,0,0,0-23.79-67.57A99.56,99.56,0,0,0,30,889.8a98.85,98.85,0,0,0-36,2.06,99.29,99.29,0,0,0-32.64,15,99.73,99.73,0,0,1,68.35-15,100,100,0,0,1,33.52,11.29,99.92,99.92,0,0,1,45.18,53.15,101.76,101.76,0,0,1,5.94,35.11A101.61,101.61,0,0,1,89.19,1057.16Z"/><path class="cls-8" d="M79.6,1050.1a83.28,83.28,0,0,0,18.05-26.89A86.61,86.61,0,0,0,98.82,959a83.28,83.28,0,0,0-17-27.54A97.9,97.9,0,0,1,96.9,959.73a93.53,93.53,0,0,1-1.15,62.72A97.41,97.41,0,0,1,79.6,1050.1Z"/><path class="cls-8" d="M81.12,1023.69A64.9,64.9,0,0,0,88,1006.32a71.06,71.06,0,0,0,2-18.73A70.51,70.51,0,0,0,87,969a64.74,64.74,0,0,0-7.8-17,102.63,102.63,0,0,1,5.82,17.5,91.83,91.83,0,0,1,2.3,18.14A92.18,92.18,0,0,1,86,1005.89,103.12,103.12,0,0,1,81.12,1023.69Z"/><ellipse class="cls-2" cx="110.36" cy="1126.53" rx="74.51" ry="75.09"/><path class="cls-8" d="M110.73,1057.89a63.84,63.84,0,0,1,23.5,3.4A66.09,66.09,0,0,1,155,1073.21a66.13,66.13,0,0,1-5.71,105,63.9,63.9,0,0,1-21.85,9.34,66.88,66.88,0,0,0,37.22-27.39,66.1,66.1,0,0,0-11-85.39A66.53,66.53,0,0,0,110.73,1057.89Z"/><path class="cls-8" d="M128.13,1072.22a49.71,49.71,0,0,1,26.37,17.29,50.25,50.25,0,0,1,11.17,29.63,69.4,69.4,0,0,0-13.26-27.93A68.49,68.49,0,0,0,128.13,1072.22Z"/><path class="cls-9" d="M1329.06,322l-11.74,6.13-4.15-2.82c-35.79-24.33-78.27-27.95-110.86-9.46L1050.88,401.8c-20.14,11.43-32.21,33.79-32.3,59.81l0,11.36a21.57,21.57,0,0,0,1.74,8.6,22.78,22.78,0,0,0,12.18,12.15,17,17,0,0,0,13.29-.09l127.72-56.86,1,2.35L1365.4,322.83A37.74,37.74,0,0,0,1329.06,322Z"/><path class="cls-7" d="M1726.75,414.41l-72.09-170.28c-83.14,5.56-174.09,42.31-275.23,92.7a37.83,37.83,0,0,0-14-14L1174.47,439.12l2.92,6.88.15-.08.21,1.05c.64,3.35,1.34,6.69,2.06,10l-8.33,7,58.2,150.35,16-1.81c1.31,2,2.66,4,4,5.94l220.44-66.78c-.1-.4-.17-.81-.29-1.21C1576,511.79,1665.23,471.05,1726.75,414.41Z"/><path class="cls-9" d="M1806.18,288.69a68.84,68.84,0,0,0,2.87-10.3s-2.45-1.92-9.37-5c-45.75-24.28-93.91-32.63-145-29.22,8.2,56.51,34.83,113.31,72.09,170.28C1764.56,379.6,1791.91,338.78,1806.18,288.69Z"/><path class="cls-9" d="M1157.05,476.12l-40.87,17.57,1.14,4.48a496.22,496.22,0,0,0,15.39,49.38l-54.6,25.05a18.27,18.27,0,0,0-9.18,23.87l.09.23a18.25,18.25,0,0,0,23.47,9.83l55.57-22.33a428.13,428.13,0,0,0,24.9,45.37l2.43,3.85,40.81-17.54,13.48-1.53L1171.48,464Z"/><path class="cls-7" d="M1432.26,606.65l.85-5,12.52-4.29a38.41,38.41,0,0,0,24.54-45.69l-220.44,66.78c.55.83,1.09,1.66,1.66,2.48l.63.91-.16.06,3.9,9.22-129.11,53.57a17.15,17.15,0,0,0-9.25,9.6,23,23,0,0,0,.27,17.27,21.52,21.52,0,0,0,4.95,7.23l8.16,7.83c18.7,17.94,43.08,24.63,65.19,17.89l166.35-50.69C1398.12,682.94,1424.92,649.52,1432.26,606.65Z"/><path class="cls-2" d="M1140.49,567.34a487.27,487.27,0,0,1-23.17-69.17l-1.14-4.48,52.33-22.5L1227.67,611l-52.28,22.47-2.43-3.85A431.44,431.44,0,0,1,1140.49,567.34ZM1128.83,500c11.63,43.89,28.62,84.1,50.73,120l34.09-14.66-50.77-119.95Z"/><path class="cls-2" d="M1180.3,623.66c-21.88-24.72-41.48-74.88-53.9-127.34,19.72,30.59,44.33,36,67.27,43.31l14.06,72.23Z"/><path class="cls-2" d="M1153.47,479.12l32.14-27q15.17,86.37,67.55,159.57l-41.57,4.7C1185.06,575.89,1164,530.21,1153.47,479.12Z"/><path class="cls-2" d="M1205.13,537.13A449.84,449.84,0,0,1,1177.75,447L1177,443l3.52-1.86q32-16.85,62.58-33.22c228.46-121.74,408.92-217.9,562.35-131.59l3.61,2-1,4c-44.36,171.36-238.13,236.09-483.45,318.05q-32.88,11-67.08,22.52l-3.8,1.28-2.29-3.31A472.46,472.46,0,0,1,1205.13,537.13ZM1189,448.84c11.65,57.76,34.75,112.29,68.88,162.65q32.2-10.9,63.31-21.24c240.26-80.27,430.44-143.81,475.38-306.5-147.63-79.89-324.75,14.49-548.5,133.72Q1219.12,432.89,1189,448.84Z"/><path class="cls-2" d="M1250.07,421.87q-26.46,14.1-53.89,28.64c211.52-98.27,416.23-229.22,592.7-164.81C1644.63,211.64,1470,304.66,1250.07,421.87Z"/><path class="cls-2" d="M1789.57,288.53c.11-.38.26-.74.37-1.12-125.2,106-416.56,218-562.43,236.26l18.31,43.25C1478.07,486.78,1667.89,427.68,1789.57,288.53Z"/><path class="cls-2" d="M1789.57,288.53c-104.86,137.62-307.75,209.58-539.94,287.4l12.1,28.59q29.37-9.91,57.79-19.38C1555.13,506.43,1742.21,443.88,1789.57,288.53Z"/><path class="cls-2" d="M1162.12,409.93,1177.39,446,1381.7,341.39l-.16-.38a38,38,0,0,0-52.48-19S1164.57,407.93,1162.12,409.93Z"/><path class="cls-2" d="M1267.13,658l-15.27-36.07,216.32-76.25.16.39a38.46,38.46,0,0,1-22.71,51.32S1270.26,657.59,1267.13,658Z"/><path class="cls-2" d="M1202.28,504.81l169.54-83.1c19.64-9.63,43.78-.24,53,21.43l.34.79c9.17,21.68-.81,45.73-21.29,53.36L1227,563.11Z"/><path class="cls-8" d="M1215,498.6l156.86-76.89c19.64-9.63,43.78-.24,53,21.43l.34.79c9.17,21.68-.81,45.73-21.29,53.36l-163.63,60.9,2.09,5,163.39-60.81a42.78,42.78,0,0,0,24.51-23.59,46.74,46.74,0,0,0-.16-36.93l-.33-.79a46.22,46.22,0,0,0-26.34-25.67,42.3,42.3,0,0,0-33.86,1.51l-156.63,76.77Z"/><path class="cls-2" d="M1020.3,481.58a21.5,21.5,0,0,1-1.75-8.61l0-11.36c.09-26,12.16-48.38,32.3-59.81l151.43-85.93c32.59-18.49,75.07-14.87,110.86,9.46l35.89,24.39-171,85-132.28,58.9a17,17,0,0,1-13.29.09A22.74,22.74,0,0,1,1020.3,481.58Zm307.52-133.3-20.63-14c-32.41-22-70.59-25.48-99.64-9l-151.43,85.93c-16.74,9.5-26.78,28.37-26.86,50.47l0,11.35a10.93,10.93,0,0,0,.89,4.35,12,12,0,0,0,6.28,6.36,6.44,6.44,0,0,0,5,.07L1173.52,425Z"/><path class="cls-2" d="M1280,379.09c-63.41,20.35-184,80.12-230.14,33.24-14.44,10.56-22.3,30.49-21,54.47l.78,14.5a8.36,8.36,0,0,0,.69,2.86,9.45,9.45,0,0,0,4,4.67,1.74,1.74,0,0,0,1.07.27l145.69-65.24Z"/><path class="cls-2" d="M1432.79,571.89,1427,605.74c-7,41-32.26,72.6-66.23,83l-166.35,50.69c-20.28,6.18-42.64,0-60-16.64l-8.16-7.83c-7.79-7.47-6.46-21.55,2.38-25.22l133.53-55.4Z"/><path class="cls-2" d="M1117.67,711.59a23,23,0,0,1-.27-17.27,17.15,17.15,0,0,1,9.25-9.6l133.52-55.4,179.45-65.66-7.36,43c-7.34,42.87-34.14,76.29-69.94,87.2L1196,744.54c-22.11,6.74-46.49.05-65.19-17.89l-8.16-7.83A21.52,21.52,0,0,1,1117.67,711.59ZM1426,580.11,1264,639.36l-133.3,55.32a6.54,6.54,0,0,0-3.44,3.71A12.3,12.3,0,0,0,1130,711l8.16,7.82c15.89,15.24,36.35,21,54.74,15.39l166.34-50.7c31.91-9.72,55.87-39.89,62.51-78.72Z"/><path class="cls-9" d="M1133.67,707.13l8.16,7.82c14.47,13.89,33,19.17,49.5,14.13l163.33-49.77C1224.16,712.11,1167.85,729.63,1133.67,707.13Z"/><path class="cls-9" d="M1073.84,594.35a13,13,0,0,1,6.49-16.85l278.43-127.72a20,20,0,0,1,26.77,10.47l.17.39a20.29,20.29,0,0,1-11,26.73L1090.51,601.53a12.81,12.81,0,0,1-16.57-6.94Z"/><path class="cls-2" d="M1069,596.7l-.09-.23a18.27,18.27,0,0,1,9.18-23.87l278.43-127.72a25.36,25.36,0,0,1,33.91,13.26,25.84,25.84,0,0,1,.25,20.26,25.33,25.33,0,0,1-14,14L1092.49,606.53A18.25,18.25,0,0,1,1069,596.7Zm311.76-134a14.91,14.91,0,0,0-8.38-8.4,14.51,14.51,0,0,0-11.43.33L1082.54,582.4a7.53,7.53,0,0,0-3.79,9.84l.1.23a7.51,7.51,0,0,0,9.67,4.06l284.17-114.17a14.65,14.65,0,0,0,8.15-8.09A14.85,14.85,0,0,0,1380.78,462.75Z"/><ellipse class="cls-10" cx="1588.12" cy="373.38" rx="76.44" ry="77.04"/><path class="cls-7" d="M1514.12,405.2c-17.41-41.12,1.63-88.85,42.43-106.39s88.15,1.64,105.56,42.76-1.62,88.84-42.43,106.38S1531.53,446.32,1514.12,405.2Zm140.62-60.46c-15.67-37-58.31-54.3-95-38.5S1505.82,365,1521.49,402s58.31,54.29,95,38.5S1670.41,381.76,1654.74,344.74Z"/><ellipse class="cls-2" cx="1588.12" cy="373.38" rx="53.43" ry="53.84"/><path class="cls-11" d="M1633.88,359.57,1551.1,343a48.63,48.63,0,0,0-10.25,23.55l93.89,17.1A48.19,48.19,0,0,0,1633.88,359.57Z"/><path class="cls-11" d="M1633.63,387.62l-93.11-16.94a50.35,50.35,0,0,0,.18,7.46l90,16.72A49.45,49.45,0,0,0,1633.63,387.62Z"/><path class="cls-2" d="M1516.91,404c-16.75-39.57,1.57-85.49,40.83-102.38s84.83,1.58,101.58,41.15-1.57,85.49-40.83,102.37S1533.66,443.56,1516.91,404Zm135-58.06c-15-35.47-55.87-52-91.07-36.89s-51.61,56.31-36.6,91.78a69.29,69.29,0,0,0,91.07,36.88C1650.55,422.58,1667,381.41,1652,345.94Z"/><path class="cls-2" d="M1647,354.62a6,6,0,0,1-7.84-3.17,6,6,0,0,1,3.15-7.89,5.94,5.94,0,0,1,7.83,3.17A6,6,0,0,1,1647,354.62Z"/><path class="cls-7" d="M1642.74,347.4a3.84,3.84,0,0,1,5,2,4.13,4.13,0,0,1,.24,1.19,3.82,3.82,0,1,0-7.21-1.32A3.77,3.77,0,0,1,1642.74,347.4Z"/><path class="cls-2" d="M1534,403.21a6,6,0,0,1-7.83-3.18,6,6,0,0,1,3.14-7.89,6,6,0,0,1,7.84,3.17A6,6,0,0,1,1534,403.21Z"/><path class="cls-8" d="M1529.75,396a3.71,3.71,0,0,1,5.28,3.23,3.82,3.82,0,1,0-7.21-1.31A3.8,3.8,0,0,1,1529.75,396Z"/><path class="cls-2" d="M1566.35,322a6,6,0,0,1-7.83-3.18,6,6,0,0,1,3.15-7.89,5.94,5.94,0,0,1,7.83,3.17A6,6,0,0,1,1566.35,322Z"/><path class="cls-7" d="M1562.14,314.75a3.73,3.73,0,0,1,5.29,3.23,3.82,3.82,0,1,0-7.21-1.31A3.78,3.78,0,0,1,1562.14,314.75Z"/><path class="cls-2" d="M1614.56,435.85a5.94,5.94,0,0,1-7.83-3.17,6,6,0,0,1,3.14-7.9,6,6,0,0,1,7.84,3.18A6,6,0,0,1,1614.56,435.85Z"/><path class="cls-8" d="M1610.35,428.63a3.82,3.82,0,0,1,5,2,3.55,3.55,0,0,1,.24,1.19,3.82,3.82,0,1,0-7.21-1.32A3.79,3.79,0,0,1,1610.35,428.63Z"/><path class="cls-2" d="M1647.45,402a6,6,0,0,1-7.83-3.17,6,6,0,0,1,3.14-7.9,6,6,0,0,1,7.84,3.17A6,6,0,0,1,1647.45,402Z"/><path class="cls-8" d="M1643.24,394.77a3.84,3.84,0,0,1,5,2.05,3.76,3.76,0,0,1,.24,1.19,3.82,3.82,0,1,0-7.21-1.32A3.84,3.84,0,0,1,1643.24,394.77Z"/><path class="cls-2" d="M1533.46,355.83a6,6,0,0,1-7.83-3.17,6,6,0,0,1,3.15-7.9,6,6,0,0,1,7.83,3.17A6,6,0,0,1,1533.46,355.83Z"/><path class="cls-7" d="M1529.25,348.6a3.74,3.74,0,0,1,5.29,3.24,3.82,3.82,0,1,0-7.21-1.32A3.82,3.82,0,0,1,1529.25,348.6Z"/><path class="cls-2" d="M1613.36,321.48a6,6,0,0,1-7.83-3.18,6,6,0,0,1,3.15-7.89,6,6,0,0,1,7.83,3.17A6,6,0,0,1,1613.36,321.48Z"/><path class="cls-7" d="M1609.15,314.25a3.73,3.73,0,0,1,5.29,3.23,3.82,3.82,0,1,0-7.21-1.31A3.78,3.78,0,0,1,1609.15,314.25Z"/><path class="cls-2" d="M1567.55,436.35a5.94,5.94,0,0,1-7.83-3.17,6,6,0,0,1,3.15-7.9,6,6,0,0,1,7.83,3.18A6,6,0,0,1,1567.55,436.35Z"/><path class="cls-8" d="M1563.34,429.13a3.73,3.73,0,0,1,5.29,3.23,3.88,3.88,0,0,0,.09-3.17,3.81,3.81,0,0,0-7.31,1.85A3.79,3.79,0,0,1,1563.34,429.13Z"/><path class="cls-2" d="M1516.91,404c-16.75-39.57,1.57-85.49,40.83-102.38s84.83,1.58,101.58,41.15-1.57,85.49-40.83,102.37S1533.66,443.56,1516.91,404Zm135-58.06c-15-35.47-55.87-52-91.07-36.89s-51.61,56.31-36.6,91.78a69.29,69.29,0,0,0,91.07,36.88C1650.55,422.58,1667,381.41,1652,345.94Z"/><path class="cls-2" d="M1523,348.29s-.16.8-.47,2.32a57,57,0,0,0-1.19,6.58,72.35,72.35,0,0,0,.53,23.91A73.2,73.2,0,0,0,1536,412a68.87,68.87,0,0,0,33,22.73,68.05,68.05,0,0,0,39.91.47,70.89,70.89,0,0,0,29.17-17.06,77.5,77.5,0,0,0,14.15-19.21c1.34-2.56,2.08-4.7,2.75-6.09l1-2.17s-.13.8-.4,2.32-.57,3.83-1.35,6.69a70.28,70.28,0,0,1-89.21,47.88,71.63,71.63,0,0,1-38.06-28.9,72.72,72.72,0,0,1-11.7-36.8,66.17,66.17,0,0,1,4.09-25.14,49.77,49.77,0,0,1,2.67-6.27Z"/><path class="cls-2" d="M1095.9,570.35c-29.75,11.1-27.93,22.32-11.54,33.59l285.43-120.28C1269.16,519.38,1176,549.65,1095.9,570.35Z"/><path class="cls-2" d="M1477.47,464.48l9-4.37c-1-2.11-15.63-29.95-27.77-58.49-5.73-14.39-11.72-28.58-15.28-39.52L1437,344.05s2,7.38,4.91,18.51c2.7,11.24,7.56,25.88,12.17,40.81C1464,433,1476.62,462.29,1477.47,464.48Z"/><path class="cls-2" d="M1694.85,371.08l8.89-4.47c-.82-1.69-13.39-23.91-24.24-46.47-5-11.44-10.34-22.7-13.09-31.58-3.12-8.78-5.18-14.6-5.18-14.6s1.48,6,3.73,15.05c1.9,9.21,6.14,21,10,33C1683.69,345.8,1694.13,369.33,1694.85,371.08Z"/><path class="cls-2" d="M1323.61,456.23c-4.91-12.22-9.85-24-12.83-33.39l-6.1-17.51s1.85,7.16,4.65,18c2.28,9.91,6.4,22.5,10.44,35.56C1321,458,1322.32,457.09,1323.61,456.23Z"/><path class="cls-2" d="M1676.62,279.14a5.25,5.25,0,0,0-.36-.66,3,3,0,1,1-4.41-1.78,3.91,3.91,0,0,0-.71.23,4.21,4.21,0,0,0-2.2,5.51,4.17,4.17,0,0,0,5.48,2.22A4.22,4.22,0,0,0,1676.62,279.14Z"/><path class="cls-2" d="M1685.37,302.84a4.64,4.64,0,0,0-.36-.66,3,3,0,1,1-4.41-1.78,3.64,3.64,0,0,0-.71.22,4.21,4.21,0,0,0-2.2,5.52,4.16,4.16,0,0,0,5.48,2.22A4.22,4.22,0,0,0,1685.37,302.84Z"/><path class="cls-2" d="M1695.65,327.14a3.72,3.72,0,0,0-.36-.65,3,3,0,1,1-4.4-1.79,4.52,4.52,0,0,0-.71.23,4.21,4.21,0,0,0-2.2,5.52,4.16,4.16,0,0,0,5.47,2.21A4.21,4.21,0,0,0,1695.65,327.14Z"/><path class="cls-2" d="M1460.22,369.83a5.25,5.25,0,0,0-.36-.66,3,3,0,1,1-4.41-1.78,4.48,4.48,0,0,0-.71.22,4.22,4.22,0,0,0-2.2,5.52,4.15,4.15,0,0,0,5.47,2.22A4.23,4.23,0,0,0,1460.22,369.83Z"/><path class="cls-2" d="M1450.43,342.85a4.64,4.64,0,0,0-.36-.66,3,3,0,1,1-4.41-1.78,3.64,3.64,0,0,0-.71.22,4.21,4.21,0,0,0-2.2,5.52,4.16,4.16,0,0,0,5.48,2.22A4.22,4.22,0,0,0,1450.43,342.85Z"/><path class="cls-2" d="M1328.72,432.55a4.15,4.15,0,0,0-.36-.66,3,3,0,1,1-4.41-1.79,4.52,4.52,0,0,0-.71.23,4.22,4.22,0,0,0-2.2,5.52,4.16,4.16,0,0,0,5.48,2.21A4.21,4.21,0,0,0,1328.72,432.55Z"/><path class="cls-2" d="M1318.93,405.56a5.25,5.25,0,0,0-.36-.66,3,3,0,1,1-4.41-1.78,3.64,3.64,0,0,0-.71.22,4.23,4.23,0,0,0-2.2,5.52,4.16,4.16,0,0,0,5.48,2.22A4.22,4.22,0,0,0,1318.93,405.56Z"/><path class="cls-2" d="M1217.17,485.08a4.64,4.64,0,0,0-.36-.66,3,3,0,1,1-4.41-1.78,3.64,3.64,0,0,0-.71.22,4.22,4.22,0,0,0-2.2,5.52,4.16,4.16,0,0,0,5.48,2.22A4.22,4.22,0,0,0,1217.17,485.08Z"/><path class="cls-2" d="M1207.38,458.09a4.52,4.52,0,0,0-.36-.65,3,3,0,1,1-4.41-1.79,4.89,4.89,0,0,0-.71.23,4.22,4.22,0,0,0-2.2,5.52,4.16,4.16,0,0,0,5.48,2.21A4.22,4.22,0,0,0,1207.38,458.09Z"/><path class="cls-2" d="M1470.27,395.32a5.25,5.25,0,0,0-.36-.66,3,3,0,1,1-4.41-1.78,3.64,3.64,0,0,0-.71.22,4.22,4.22,0,0,0-2.2,5.52,4.16,4.16,0,0,0,5.48,2.22A4.22,4.22,0,0,0,1470.27,395.32Z"/><path class="cls-2" d="M1481.19,421.11a4.52,4.52,0,0,0-.36-.65,3,3,0,1,1-4.41-1.79,4.52,4.52,0,0,0-.71.23,4.21,4.21,0,0,0-2.2,5.52,4.16,4.16,0,0,0,5.47,2.21A4.23,4.23,0,0,0,1481.19,421.11Z"/><path class="cls-2" d="M1492.1,446.9a3.72,3.72,0,0,0-.36-.65,3,3,0,1,1-4.4-1.79,4.52,4.52,0,0,0-.71.23,4.2,4.2,0,0,0-2.2,5.51,4.15,4.15,0,0,0,5.47,2.22A4.21,4.21,0,0,0,1492.1,446.9Z"/><path class="cls-2" d="M1301.09,333.93l-29.21-7.76a79.17,79.17,0,0,0-31.63-1.17c-11.87,2-23.8,7.17-36,14.49-49.44,28.52-91.19,48.73-91.19,48.73s38.44-26.05,87.91-54.59c12.23-7.38,25.79-12.89,38.5-14.25a76.62,76.62,0,0,1,33.33,3.55c8.9,3.09,15.85,6.06,20.75,7.95Z"/><ellipse class="cls-12" cx="1572.17" cy="1219.22" rx="458.31" ry="461.88"/><path class="cls-9" d="M1874.13,1573.83a463,463,0,0,0,105.15-130.68,35.53,35.53,0,0,1,7.29-15.38,29,29,0,0,0,3.35-6.23q10.33-26.28,20.54-52.58c2.31-6.2,4.62-12.41,6.81-18.63a469.06,469.06,0,0,0,17.86-105.93,194.76,194.76,0,0,1-.49-20.64c.1-5.19-.12-10.36-.21-15.52-.38-12.3-.64-24.58-1-36.81A468.8,468.8,0,0,0,1883.6,872.94c1.86,2.24-8-1.35-6.86.59,5,8.41,14.14,22.66,19.17,29.77,8.61,12.12,8.57,18.54.55,29.34,9.5,6.44,9.5,6.44,6,16.56-1.45,4.07-2.54,8.19-4.26,12-.72,1.61-2.31,3.76-3.81,4-7.82,1.16-15.62,4.22-23.7,1.3-4.85-1.7-9.77-3.35-14.74-5.07l-13.72-18.64c-9-12.29-20.39-17.92-35.59-13.7a65.77,65.77,0,0,1-12.45,2.06,16.82,16.82,0,0,1-8.05-1c-8.58-4-17.49-6.65-26.46-9.64-6.72-2.23-12.34-3.25-18.61-.27a9,9,0,0,0,2,10.65c5.66,6.11,9.59,12.87,8.71,21.74-.67,8.29,5.42,14,11.37,14,9.75.17,12.15,6.59,14.09,12.82,3.88,12.45,6.23,25.41,9.34,38.12,1.52,5.79.59,10.86-2.1,16.39-6.91,14.34-17.88,22.86-33.31,25.77-4.93.91-9.8,1.78-14.8,2.75-.48,4.94-2.83,9.8,1.85,13.86,4.37,3.77,4.38,9.1,2.18,13.3-2.52,4.77-1.42,8.85-.58,13.44.73,4.15,1.08,8.37,1.72,13.54-4.16,2.26-8,5.6-12.3,6.43-8.25,1.59-16.69,1.92-25.1,2.56-1.11.08-2.29-1.38-3.41-2,.5-4.64,1-9,1.32-12.3-3.9-8.6-10.62-13.27-17.41-17.47a11.09,11.09,0,0,1-5.8-7.29c-3.36-10.6-9.68-13.87-20.54-11.51-4.52,1-8.85,3.64-13.31,3.77-9.34.38-13.23,6.59-16.4,13.65-2.52,5.62-4.23,11.49-6.67,18.53,3.68,3.12,7.54,7.8,12.39,9.93s9.31,5.73,9.81,9.73c1.08,8.36,8.2,12.85,10.53,19.32-2,4.84-5,9.1-5.46,13.57-1.37,15.1-11.75,28.3-8.8,44.23-6.3,9.4-1.12,19.18-1.48,29.9,4.18.5,7.81,1,8.65,1.1,4.79-4.12,7.45-8.13,10.46-8.35,4.86-.44,8.13-2.89,11.27-5.67,7.84-7,16.56-11,27.17-8.37,3.58-5.34,6.75-10,9.78-14.46,9.43-3.43,18.33.47,27.49,3.86,3.62-2.71,6.9-5.58,10.56-7.79,3.19-1.85,7.9-1.64,8.59,1.89,1.62,8.81,9,15.48,8.39,25.19-.16,4,2,8,2.7,10.56-2.81,5.09-6.74,9.1-7,13.22-.91,17.74-11.67,34.75-3.79,53.06a9.69,9.69,0,0,1,1,4.07c-.75,17.94.93,21.8,13.54,32.31a32.08,32.08,0,0,1,5.61,6.47c5.54,7.38,11.07,14.76,16.41,22.28,7.52,10.37,6.71,17.59-3.73,25a101,101,0,0,0-26.86,28.62c-5.55,8.85-12.24,9.69-20.3,8.79-3.78-.38-7.48-4.54-10.93-4.2-5.05.47-7.64-1.75-11.12-4.48-2.73-2.12-7.16-3-8.94,3-.61,2.06-3.72,3.43-6.71,6-1.55-8.43-2.86-15.24-4.09-22.22-3.71-1.16-7.12-2.34-11.75-3.89l7.15-14c-11.27-1.81-16.9-13.91-28-14.7-2.39,8.82-4.74,16.55-6.52,24.49-1.93,8.59-.9,16.45,8.08,21.89-7.33,8.58-12.42,17.19-7.72,28.6.72,1.7-1.78,5.06-3.15,7.37a30,30,0,0,1-5,6.65c-5.6,5-10.78,11.37-18.71,12.39-9.15,1.09-17.23,5.63-24.29,10.27-12.51,8.3-26.12,8.35-39.22,7-15.73-1.68-30.71-7.64-42.72-18.5-8.25,4.89-8.25,4.89-17.74,3.36l-15.39-20.91c.19-1.75.23-3.27.5-4.64,2.51-13,2.9-27.23,19.76-30.78.63-.15,1-1.5,1.61-2.27,2.86-4.16,6.13-8.21,8.65-12.54,1.32-2.38,2.75-5.9,1.82-7.87-5-10.85-.08-18.07,7.64-24.69,1.58-1.3,2.24-3.71,3.25-5.64.65-2.72,1.66-5.51,1.76-8.25.25-5.84-1-6.63-8.51-7,1.94,4.94,3.92,10.07,5.85,15.14-8.12,2.76-9.9,2.5-12.57-3.29-1.84-4.07-2.87-8.63-4.29-13.43,4-1.42,7.44-2.69,10.34-3.78,1.77-13.7-2.42-26.14-5.79-38.76-2.55-9.5-.48-19,3.15-28,4.34-10.93,9.71-21.45,13.4-32.53,3.9-11.66,16-19,16.21-32.59.08-3,4-6,6.3-9,4.36-5.72,6.06-12.32,7.67-20.77-4.19.35-7.72-.42-10.15.87-12,6.48-25,9.74-37.84,13.58-9,2.76-18.44,4.41-25.27,11.65-12,12.79-28.7,14.64-44,16.51-19.06,2.42-35.39,8.13-49.13,20.65-2.35,7.73-2,12.73,6.27,16.85,8.88,4.44,9.28,9.58,4.82,19.32a26.65,26.65,0,0,0-1.79,3.9c-2.16,7.27-5.72,14.51-5.89,21.89-.14,8.43-2.42,14.39-9.49,18.73-12.43,7.69-20.71,19-27.22,31.87-1.35,2.61-3.51,4.86-6.07,8.27-6.43-8.73-12.06-15.93-17.2-23.5-5.77-8.26-5-13.66,2.57-20.79,8.16-7.6,5.08-17.67-3.72-22.29-6.93-3.66-14.55-6-22.64-9.19l-10.93-14.85c.21-15.52,7.06-29.92,3-44.67-12.29-6.06-12.54-6.41-8.55-18.67,2.14-6.72,5.62-13.05,3.14-20.58a9.65,9.65,0,0,1,1-7.14c5-8.62,2.19-17.42,1.24-26.2-1-9.27-4.6-18.31-1.61-27.91,1.83-5.85,3.47-11.66,5.08-17.24l-7.85-10.65c-.34-9.67-.63-17.24-.73-24.84,0-2.76-.44-6.07.89-8.13,5.11-7.87-1.22-13.59-3.6-19.7-2.35-5.92-8.71-4.36-13.42-4.57-1.5,1.55-3,2.36-3.38,3.59-3.37,11-9.76,20.09-17,28.62a34.64,34.64,0,0,0-5.33,8.14c-4.18,9.42-8.71,18.78-11.9,28.53-2.28,6.82-4.4,13.42-9.43,18.67a147.42,147.42,0,0,0-20.58,28.09c-3.91,6.76-13,8.84-21.46,8.36-9.11-.44-8.47-8.48-11.06-14-11.45-4.77-21.25-9.17-31.29-12.75-5.07-1.86-7.91-4.85-8.86-10-1.8-9.64-6.82-17.61-13.33-25.44,1.57-5.33,3.76-10.7,4.76-16.24,4.08-22,12.07-43,18-64.53a25.5,25.5,0,0,1,7-12c4.26-4.14,9.07-8.81,10.9-14.23,3.76-11.56,11.52-20.13,18.59-29.36,3.39-4.45,9.47-8.26,10.11-13,1.26-8.63,6.34-14.66,10.15-21.56,4.6-8.56,8.57-18.68,15.79-24.4,9.9-7.83,13.88-20.09,24.17-27.67,5.44-4,9-10.47,16.65-11.6,1.66-.18,4.15-1.83,4.41-3.2,1.34-6.22,6.93-7.84,10.87-11.11,4-3.44,8.19-7,12.81-9.47,4.29-2.36,5.41-7.89,11.31-9.21,4.72-1.07,8.55-6.07,12.88-9.1,15.84-10.67,29.81-14.25,45.65-24.92.87-.55,5.74-7.83,6.58-8.13,20.14-6.85,40.33-15.92,60.49-15.92,8.46,0,13.51-7.86,20.5-12.87,2.31-1.62,9.88-.43,12.52-1,12.73-2.69,25.07-5.66,37.9-7.79,14.56-2.36,24.61-6.08,39.15-4.58,7.07.69,14.6,2.3,21.22.66,11.23-2.86,21.76-.06,32.51,1.17,2.92.38,5.92,1.44,8.66,1,12.72-1.84,24.68,2.33,37,4.23a47.1,47.1,0,0,0,7.61.71c39.56.7,172.2,59.18,208.45,94.71,12.27,12,34.08,23.24,33.11,22.16-17.11-19.27-41.71-36.62-71.09-55.36-38.08-24.28-84.81-49-140.26-63.31-129.89-32.54-272.7-8.49-388.56,78.17a463.93,463.93,0,0,0-117.35,128.18c-.07.05-.07.05-.08.17a35.83,35.83,0,0,0-1.46,3.33,11.77,11.77,0,0,1-3.53,5c-92.49,157.05-88.35,361.26,26.39,517.08a461.38,461.38,0,0,0,291.25,181.55c.76.18,1.53.35,2.24.46.48.07,1,.21,1.48.28a17.91,17.91,0,0,1,4.82,1.94c1.23.68,3.58.41,5.33-.37a456,456,0,0,0,51.37,4.67,462.7,462.7,0,0,0,100-7.37c2.69-.52,5.31-1,7.94-1.57,3.38.14,6.75.4,8.91-1.12l2.14-1.27c6.4-3.51,13.32-4.32,20.31-5.17a.52.52,0,0,0,.31,0,52.94,52.94,0,0,0,17.67-5.32,460.62,460.62,0,0,0,135-69.91C1857.37,1587.85,1865.86,1581,1874.13,1573.83ZM1770,1315.27c.21-1.86.43-3.73.64-5.59C1774.31,1312.67,1774.31,1312.67,1770,1315.27ZM1238.7,1455.83c-7.88,5.68-7.59,5.36-16.42-1.16-5.19-3.9-11.45-6.36-17.81-9.82-1-4.25-1.7-9.5-3.56-14.18s-5.45-8-11.08-7.72-8.9-3.47-10.39-8.22c-.81-2.38-.7-6.84,3-7,5.31-.13,6.71-5.12,6.46-7.18-.91-8.28,4.8-13.61,7.48-20.31l-9-12.17c-3-.39-6.37-.89-9.29-1.26-.82.61-1.45.76-1.62,1.1-3.21,6.13-6.35,12.21-10.23,19.59-5.89-7.43-10.21-13.58-13.18-21.49-5.54-14.84-8.14-31.45-18.71-40.93-1.32-11.27-2-20.25-3.51-29-1.81-11.22-1.64-21.48,6.8-30.57a13,13,0,0,0,3.34-11.56c-.78-4.64,2.49-10,3.3-15.05,1.44-9,8.44-15.7,8.64-25.34.14-6.71,7.72-9.5,14-5.5,8.24,5.15,16.76,10.4,23.38,17.39,10.86,11.29,23,15.73,38.2,12.49,1.75-.35,3.65-.5,6-.83,1.86,6,4.35,10.94,9.63,14.66,4.94,3.56,8.54,8.87,11.75,12.22,2,26.56-12.73,36.61-35.7,39.61-6.17-3.92-7.88-12.14-11.4-20.37-4.44,2.46-8.41,4.68-12.31,6.85-8.71-8.52-14.38-10-32.27-8.18-6.43,12.81-6.84,25.49,2.16,37.85,4.46,6,8.79,12.08,15.36,16.55,6.14,4.16,10.52,10.69,15.93,16,1.59,1.58,3.75,2.64,5.54,4.07,10.56,8.31,21.06,16.67,32.22,24.21,10,6.63,13.81,18.89,16.19,30.76a10.07,10.07,0,0,1-.84,5.75c-5.08,10.2-4.75,21.14-4.09,32.81Zm87.1,53.76c-4.38-1.2-9.92-2.39-12.42-5.64-9.59-12.45-22.41-21.1-34-31.21-3.23-2.81-5.64-6.66-7.89-10.42-5.32-9.24-1.11-22.63,8.84-26.23,3.47-1.32,8.56-.44,12.07,1.31,8.73,4.24,17,9.58,25.46,14.45a28.89,28.89,0,0,0,3.66,1.53c3.14,17.48,6.28,35,9.66,53.35C1329.54,1507.64,1327.31,1510.06,1325.8,1509.59Zm340.74-43.37c2.37-9.13,4-16.66,14.2-18.51,3.11-.52,5.43-5.56,8.11-8.52,9.84,8.32,9.84,8.32,6.53,27.54C1686.25,1467.26,1677.08,1469.75,1666.54,1466.22Z"/><path class="cls-9" d="M1263.91,914.33c-1.31.67-2.59,1.4-3.87,2.11l1.16,1.63c1.09-1,2.19-2,3.25-3.05A2.75,2.75,0,0,0,1263.91,914.33Z"/><path class="cls-9" d="M1724.57,986.74c-3.82-.11-7.6-1.19-11.42-1.59a23.41,23.41,0,0,0-18.34,5.62c-3.23,2.71-6,5.39-4.83,9.56,1.39,4.94,5.29,6.31,7.79,5.6l13.34-13.1,26.14,6.08C1733.78,990.59,1730.84,986.91,1724.57,986.74Z"/><path class="cls-9" d="M1694.73,1022.14c-8.16,0-14.07,3.35-16.32,13,10.51,6.37,14.82-7.48,23.27-4.7C1701.77,1024.46,1699.11,1022.17,1694.73,1022.14Z"/><path class="cls-9" d="M1340.05,850.62c-7.75-1.49-12.56-4.29-17.45.22-5.27,4.86-7.39,11-7.11,17.9.08,1.83,2.36,4.64,4.1,5.07,2.41.6,6.61.33,7.69-1.23C1331.69,866.18,1335.21,859.16,1340.05,850.62Z"/><path class="cls-9" d="M1603,794c-6.17-3.11-10.45-.65-15,5.07C1599.47,800.8,1599.47,800.8,1603,794Z"/><path class="cls-9" d="M1804.87,901.8c8.09-.25,15,1.75,20.92,7.77,1.28,1.31,5,.24,7.69.27-1.85-12.31-11.78-13-19.62-16.14-5.48-2.19-10.06-.05-14.42,5.4C1801.57,900.21,1803.24,901.85,1804.87,901.8Z"/><path class="cls-9" d="M1856.44,867.7c-6.58-2.33-12.3-5.41-16.47,3.36C1845.61,872.1,1852,877.62,1856.44,867.7Z"/><path class="cls-9" d="M1731.89,864.88c5.8.7,8.8-2.1,11.61-6.25-15.69-11-17.61-11.09-28.48-1.41C1719.54,863.09,1721.53,863.62,1731.89,864.88Z"/><path class="cls-9" d="M1447.25,1083.17c7.56,0,13-2.3,20-9.46,2-2,2.47-5.5,3.88-8.87-11.3-4.85-15.36,5-22.61,8.06C1448.08,1076.4,1447.67,1079.76,1447.25,1083.17Z"/><path class="cls-9" d="M1704.54,797.79l-8.1-.75C1697.53,802.13,1699.61,801.86,1704.54,797.79Z"/><path class="cls-9" d="M1504.23,1067.4l14-10.46C1507.77,1056,1506.18,1057.2,1504.23,1067.4Z"/><path class="cls-9" d="M1484.5,859.85c-3.35,5-.19,10.11,3.64,14.25,4.38,4.75,10.4,4.74,12.47-1.21,3.32-9.51,11.18-13.8,18.09-19.46,5.46-4.48,11.38-6,18.4-5.32,10.53,1,12.67-1.17,12.6-11.63,0-2.3-.88-4.59-1.4-7.12-8.1-5.15-17.07-5.33-26.69-3.73s-15.41,9.06-23,13.72S1489.12,853,1484.5,859.85Z"/><path class="cls-9" d="M1637.9,840a5.25,5.25,0,0,0,2.69-2.56,2.52,2.52,0,0,0-.95-2.26,4.89,4.89,0,0,0-3.58-.12c-1.5.82-2.66,2.29-5.8,5.17C1634.2,840.13,1636.13,840.4,1637.9,840Z"/><path class="cls-9" d="M1588.72,967.41a28.77,28.77,0,0,0-16,2.57c-3.15,1.48-4.7,6.38-6.89,9.66,7.08,6.47,8.09,7.29,12.05,4,5.27-4.44,11.4-5.32,16.92-6C1599.24,969.5,1591.76,967.89,1588.72,967.41Z"/><path class="cls-9" d="M1548,1030.82c.85,8.42-.13,17,.86,25.43a17.29,17.29,0,0,1-4,14.06c-5.85,7-7.36,15.52-10,23.81,11.15,2.56,19.49-2.79,24.59-9.78,5.35-7.34,12.33-11.81,19-17,12.15-9.52,24.65-18.57,35.71-26.83,2.3-7.34,2.63-14.6,6.38-18.64,4.17-4.49,5.16-8.82,5.74-16.65-8.36-1.84-16.06-4-23.9-5.13-6.5-1-13.37.16-19.71-1.28-6.1-1.38-11.26.55-16.42,2.29C1552.45,1005.75,1546.57,1016.42,1548,1030.82Z"/><path class="cls-9" d="M1199.46,1049.06c8.76-9.66,15.94-18.84,10.91-32.47-13.15,7.28-15.53,10.3-17.37,19.27C1191.85,1041.48,1194.3,1045,1199.46,1049.06Z"/><path class="cls-9" d="M1256.7,953.52c-7.25,7.84-6.86,16.43-4.53,25.72,29.74-4.3,44.46-30.53,43.94-56.36l-10.74-1.35c-6.9,6.64-14.26,13.26-21,20.45C1261.23,945.29,1259.78,950.18,1256.7,953.52Z"/><path class="cls-9" d="M1543.37,790.38c-10.5-6.11-10.5-6.11-18.81,2.68Z"/><path class="cls-9" d="M1347.84,916.91c-1.48,3.12-1.08,7.14-1.63,12l12.72,1.05c1.73-6.76,9.85-10.47,8.86-19.86-4.67.11-9-.58-12.72.55A13.05,13.05,0,0,0,1347.84,916.91Z"/><path class="cls-9" d="M1231.9,1066.17l-9.94-4c-12.36,4.33-15.24,13.78-17.7,23.82l8,10.89C1224.48,1089.22,1232.27,1080.29,1231.9,1066.17Z"/><path class="cls-9" d="M1158.4,1098.21c.74,4.14,1.25,8.33,2.08,14l13.86.2c3.74-8.68,7.71-17.61,11.34-26.69a7.26,7.26,0,0,0-.7-5.41c-3-5.32-7.9-8.69-13.82-8.71-5.09,0-7.77,3.82-10,8.71C1158.42,1086.25,1157.27,1091.89,1158.4,1098.21Z"/><path class="cls-9" d="M1507.25,1018.39c-3.17-5.83-6-8.87-11.62-9.51-7.87-.91-15-.48-21.25,5-15,1.5-17,12.92-18.37,24.67-.44,3.81,1.3,6.44,5.81,6.89,6.54-6.34,9.48-16,18-21S1497.49,1020.08,1507.25,1018.39Z"/><path class="cls-9" d="M1451.63,825.76c-1.64-5.81-5.45-8.83-11.41-8.74-7.36.06-14.43-.19-22,1.81-17.26,4.58-31,14.77-43.28,26.29-10.35,9.66-19.59,21.68-17.44,38.1,10.14,6.6,20.6,2.83,29.35-.94,9.73-4.18,17.31-12.85,27.75-16.92,3.8-1.45,5.62-7.61,9.42-9.92C1435.92,848,1444.38,837.47,1451.63,825.76Zm-38.76,24.83c-.8-2-1.21-2.51-1-2.73,1.08-2.41,2.35-4.85,3.66-7.54,2.15.63,4.31,1.26,7.23,2.06C1420.71,847.71,1417.5,849.68,1412.87,850.59Z"/><path class="cls-9" d="M1547.91,904.18c-.42,1.38-3,2.93-4.64,2.94-7.12,0-10.49,5.86-15.24,8.51-1.8,8,.24,14,5.51,19.79,7.35-1.47,15.57-1.81,22.66-4.84a131.07,131.07,0,0,1,32-8.78,37.11,37.11,0,0,1,32.33,10.56c7.27,7.58,13.6,8.3,23.38,5.52.69-5.2,3.71-11.86,1.65-15.86-3.88-7.54-4.28-15.28-5.65-23.09-2.48-14.21-12.1-21.72-24.72-26.32-4.88,2.84-8.82-1.15-11-3.52-5.72-6.2-11.94-3.67-16.76-1.1-7.57,4-16.3,8.74-20.44,15.66C1561.87,892.19,1551,894.3,1547.91,904.18Z"/><path class="cls-9" d="M1456.31,925.59c-9,9.14-21.24,11.66-32.53,16.12-2.14.85-4.46,1.27-6.55,2.2-7.26,3.25-14.44,5.6-22.46,2.23a16.79,16.79,0,0,0-8.49-.75c-11.82,1.68-24.47-1-35.23,6.51-8.88-.38-14.94,5.25-21.39,10.13-8.87,6.72-18.05,13.05-26.66,20.09-8.78,7.19-17.07,15-25.51,22.61-6.06,5.46-8,12.35-7.4,19.88,4.61,2.56,8.17,2.35,11.24-.88,5.11-5.36,12-7.55,18.58-9.85a237.64,237.64,0,0,1,54.16-11.83c3.24-.34,7-1.06,9.72.2,5.83,2.71,12.24,5.61,16.32,10.29,3.72,4.26,4.79,10.93,6.77,16.62,1.26,3.61,1.65,7-.54,10.9-1.76,3.14-3.46,8.46-2,10.9,4.67,7.88,3,15.63,2.12,23.7-.59,5.12.41,9.09,5.5,12.71,4.76,3.4,7.48,9.39,8.67,15.93,1.93,10.62,5.52,20.7,14.79,27.86,1.88-1.82,4.13-3,4.43-4.47,1.41-7.13,4.41-14.86,2.92-21.49-3.58-15.88,2.58-31.9-2.37-47.73-2-6.29,4.19-26.87,7.06-33.74a11.78,11.78,0,0,0,1.15-4.94c-.63-11,3.92-20.26,9.92-28.84,9.3-13.29,18.74-26.5,28.54-39.44,3.27-4.33,3.62-8.54,2.57-13.38-.87-4-1.69-8.1-2.77-13.27C1462.84,921.7,1459.29,922.57,1456.31,925.59Z"/><path class="cls-9" d="M1354.71,1057.18q-.89,2.79-1.76,5.59l1.73,1a43.29,43.29,0,0,0,2-5C1356.76,1058.39,1355.4,1057.69,1354.71,1057.18Z"/></g></g><g id="Layer_4" data-name="Layer 4"><polygon class="cls-9" points="1518.2 134.96 1515.05 104.53 1499.93 131.05 1470.24 124.67 1490.59 147.37 1475.4 173.85 1503.1 161.35 1523.4 184.1 1520.17 153.68 1547.91 141.26 1518.2 134.96"/><polygon class="cls-9" points="1852.34 606.16 1849.19 575.74 1834.06 602.26 1804.37 595.88 1824.73 618.57 1809.53 645.05 1837.24 632.56 1857.53 655.31 1854.3 624.89 1882.04 612.47 1852.34 606.16"/><polygon class="cls-9" points="1647.52 163.44 1649.38 180.57 1657.82 165.58 1674.56 169.09 1663.03 156.37 1671.51 141.41 1655.94 148.53 1644.44 135.78 1646.36 152.9 1630.77 159.98 1647.52 163.44"/><polygon class="cls-9" points="1719.96 689.65 1721.83 706.78 1730.26 691.8 1747 695.3 1735.47 682.58 1743.95 667.62 1728.38 674.74 1716.88 662 1718.8 679.12 1703.21 686.2 1719.96 689.65"/><polygon class="cls-9" points="1589.16 82.41 1591.03 99.53 1599.47 84.55 1616.21 88.05 1604.68 75.33 1613.15 60.37 1597.59 67.5 1586.09 54.75 1588 71.87 1572.42 78.95 1589.16 82.41"/><polygon class="cls-9" points="1721.16 105.49 1722.59 118.62 1729.06 107.13 1741.89 109.82 1733.05 100.07 1739.55 88.6 1727.62 94.06 1718.8 84.29 1720.27 97.41 1708.32 102.84 1721.16 105.49"/><polygon class="cls-9" points="1822.48 722.92 1823.91 736.05 1830.38 724.57 1843.21 727.25 1834.37 717.5 1840.87 706.03 1828.93 711.49 1820.12 701.72 1821.59 714.84 1809.64 720.27 1822.48 722.92"/></g></svg>